<svg width="395" height="275" viewBox="0 0 395 275" fill="none" xmlns="http://www.w3.org/2000/svg">
<g clip-path="url(#clip0_7415_54214)">
<mask id="mask0_7415_54214" style="mask-type:alpha" maskUnits="userSpaceOnUse" x="-6" y="6" width="434" height="297">
<rect width="432.106" height="297" transform="translate(-5.05859 6)" fill="url(#paint0_radial_7415_54214)"/>
</mask>
<g mask="url(#mask0_7415_54214)">
<g clip-path="url(#clip1_7415_54214)">
<g clip-path="url(#clip2_7415_54214)">
<line x1="25.4897" y1="-97.0117" x2="25.4897" y2="385.613" stroke="#2F3236" stroke-width="1.43638"/>
<line x1="59.9623" y1="-97.0117" x2="59.9623" y2="385.613" stroke="#2F3236" stroke-width="1.43638"/>
<line x1="94.435" y1="-97.0117" x2="94.435" y2="385.613" stroke="#2F3236" stroke-width="1.43638"/>
<line x1="128.908" y1="-97.0117" x2="128.908" y2="385.613" stroke="#2F3236" stroke-width="1.43638"/>
<line x1="163.382" y1="-97.0117" x2="163.382" y2="385.613" stroke="#2F3236" stroke-width="1.43638"/>
<line x1="197.855" y1="-97.0117" x2="197.855" y2="385.613" stroke="#2F3236" stroke-width="1.43638"/>
<line x1="232.328" y1="-97.0117" x2="232.328" y2="385.613" stroke="#2F3236" stroke-width="1.43638"/>
<line x1="266.802" y1="-97.0117" x2="266.802" y2="385.613" stroke="#2F3236" stroke-width="1.43638"/>
<line x1="301.275" y1="-97.0117" x2="301.275" y2="385.613" stroke="#2F3236" stroke-width="1.43638"/>
<line x1="335.747" y1="-97.0117" x2="335.747" y2="385.613" stroke="#2F3236" stroke-width="1.43638"/>
<line x1="370.22" y1="-97.0117" x2="370.22" y2="385.613" stroke="#2F3236" stroke-width="1.43638"/>
</g>
<rect x="-43.5934" y="-96.4294" width="481.46" height="481.46" stroke="#2F3236" stroke-width="1.16471"/>
<g clip-path="url(#clip3_7415_54214)">
<line x1="-44.1758" y1="5.68977" x2="438.449" y2="5.68977" stroke="#2F3236" stroke-width="1.43638"/>
<line x1="-44.1758" y1="40.1629" x2="438.449" y2="40.1629" stroke="#2F3236" stroke-width="1.43638"/>
<line x1="-44.1758" y1="74.6362" x2="438.449" y2="74.6362" stroke="#2F3236" stroke-width="1.43638"/>
<line x1="-44.1758" y1="109.109" x2="438.449" y2="109.109" stroke="#2F3236" stroke-width="1.43638"/>
<line x1="-44.1758" y1="143.583" x2="438.449" y2="143.583" stroke="#2F3236" stroke-width="1.43638"/>
<line x1="-44.1758" y1="178.056" x2="438.449" y2="178.056" stroke="#2F3236" stroke-width="1.43638"/>
<line x1="-44.1758" y1="212.529" x2="438.449" y2="212.529" stroke="#2F3236" stroke-width="1.43638"/>
<line x1="-44.1758" y1="247.002" x2="438.449" y2="247.002" stroke="#2F3236" stroke-width="1.43638"/>
</g>
<rect x="-43.5934" y="-96.4294" width="481.46" height="481.46" stroke="#2F3236" stroke-width="1.16471"/>
</g>
</g>
<rect x="49" y="235" width="296" height="3" rx="1.5" fill="#4E5053"/>
<path d="M89 157C89 153.686 91.6863 151 95 151H122C125.314 151 128 153.686 128 157V235H89V157Z" fill="#FCCE3A"/>
<g filter="url(#filter0_b_7415_54214)">
<mask id="path-26-inside-1_7415_54214" fill="white">
<path d="M207 104C207 100.686 209.686 98 213 98H240C243.314 98 246 100.686 246 104V235H207V104Z"/>
</mask>
<path d="M207 104C207 100.686 209.686 98 213 98H240C243.314 98 246 100.686 246 104V235H207V104Z" fill="#4E5053" fill-opacity="0.5"/>
<path fill-rule="evenodd" clip-rule="evenodd" d="M206.5 232.023H207.5H208V235H207.5H207H206.5H206V232.023H206.5ZM206 226.068H206.5H207.5H208V220.114H207.5H206.5H206V226.068ZM206 214.159H206.5H207.5H208V208.205H207.5H206.5H206V214.159ZM206 202.25H206.5H207.5H208V196.295H207.5H206.5H206V202.25ZM206 190.341H206.5H207.5H208V184.386H207.5H206.5H206V190.341ZM206 178.432H206.5H207.5H208V172.477H207.5H206.5H206V178.432ZM206 166.523H206.5H207.5H208V160.568H207.5H206.5H206V166.523ZM206 154.614H206.5H207.5H208V148.659H207.5H206.5H206V154.614ZM206 142.705H206.5H207.5H208V136.75H207.5H206.5H206V142.705ZM206 130.795H206.5H207.5H208V124.841H207.5H206.5H206V130.795ZM206 118.886H206.5H207.5H208V112.932H207.5H206.5H206V118.886ZM206 106.977H206.5H207.5H208V104C208 103.32 208.135 102.674 208.379 102.086L207.917 101.895L206.993 101.512L206.532 101.32C206.189 102.147 206 103.053 206 104V106.977ZM213 99H216.375V98.5V97.5V97H213C212.053 97 211.147 97.1887 210.32 97.5316L210.512 97.9934L210.895 98.9171L211.086 99.379C211.674 99.1351 212.32 99 213 99ZM223.125 97V97.5V98.5V99H229.875V98.5V97.5V97H223.125ZM236.625 97V97.5V98.5V99H240C240.085 99 240.169 99.0021 240.253 99.0063C240.84 99.0355 241.399 99.1656 241.914 99.379L242.105 98.9171L242.488 97.9934L242.68 97.5316C241.938 97.224 241.133 97.0405 240.291 97.006C240.195 97.002 240.097 97 240 97H236.625ZM245.083 101.895L246.007 101.512L246.468 101.32C246.768 102.044 246.95 102.828 246.991 103.647C246.997 103.764 247 103.882 247 104V106.977H246.5H245.5H245V104C245 103.902 244.997 103.804 244.992 103.708C244.959 103.135 244.83 102.59 244.621 102.086L245.083 101.895ZM245 112.932V118.886H245.5H246.5H247V112.932H246.5H245.5H245ZM247 124.841H246.5H245.5H245V130.795H245.5H246.5H247V124.841ZM247 136.75H246.5H245.5H245V142.705H245.5H246.5H247V136.75ZM247 148.659H246.5H245.5H245V154.614H245.5H246.5H247V148.659ZM247 160.568H246.5H245.5H245V166.523H245.5H246.5H247V160.568ZM247 172.477H246.5H245.5H245V178.432H245.5H246.5H247V172.477ZM247 184.386H246.5H245.5H245V190.341H245.5H246.5H247V184.386ZM247 196.295H246.5H245.5H245V202.25H245.5H246.5H247V196.295ZM247 208.205H246.5H245.5H245V214.159H245.5H246.5H247V208.205ZM247 220.114H246.5H245.5H245V226.068H245.5H246.5H247V220.114ZM247 232.023H246.5H245.5H245V235H245.5H246H246.5H247V232.023Z" fill="#98A2B3" mask="url(#path-26-inside-1_7415_54214)"/>
</g>
<g filter="url(#filter1_b_7415_54214)">
<mask id="path-28-inside-2_7415_54214" fill="white">
<path d="M266 199C266 195.686 268.686 193 272 193H299C302.314 193 305 195.686 305 199V235H266V199Z"/>
</mask>
<path d="M266 199C266 195.686 268.686 193 272 193H299C302.314 193 305 195.686 305 199V235H266V199Z" fill="#4E5053" fill-opacity="0.5"/>
<path fill-rule="evenodd" clip-rule="evenodd" d="M265.5 232H266.5H267V235H266.5H266H265.5H265V232H265.5ZM265 226H265.5H266.5H267V220H266.5H265.5H265V226ZM265 214H265.5H266.5H267V208H266.5H265.5H265V214ZM265 202H265.5H266.5H267V199C267 198.32 267.135 197.674 267.379 197.086L266.917 196.895L265.993 196.512L265.532 196.32C265.189 197.147 265 198.053 265 199V202ZM272 192C271.053 192 270.147 192.189 269.32 192.532L269.512 192.993L269.895 193.917L270.086 194.379C270.674 194.135 271.32 194 272 194H275.375V193.5V192.5V192H272ZM282.125 192V192.5V193.5V194H288.875V193.5V192.5V192H282.125ZM295.625 192V192.5V193.5V194H299C299.085 194 299.169 194.002 299.253 194.006C299.84 194.035 300.399 194.166 300.914 194.379L301.105 193.917L301.488 192.993L301.68 192.532C300.938 192.224 300.133 192.04 299.291 192.006C299.195 192.002 299.097 192 299 192H295.625ZM304.083 196.895L305.007 196.512L305.468 196.32C305.768 197.044 305.95 197.828 305.991 198.647C305.997 198.764 306 198.882 306 199V202H305.5H304.5H304V199C304 198.958 303.999 198.915 303.998 198.873C303.997 198.818 303.995 198.762 303.992 198.708C303.959 198.135 303.83 197.59 303.621 197.086L304.083 196.895ZM304 208V214H304.5H305.5H306V208H305.5H304.5H304ZM306 220H305.5H304.5H304V226H304.5H305.5H306V220ZM306 232H305.5H304.5H304V235H304.5H305H305.5H306V232Z" fill="#98A2B3" mask="url(#path-28-inside-2_7415_54214)"/>
</g>
<path d="M148 65C148 61.6863 150.686 59 154 59H182C185.314 59 188 61.6863 188 65V235H148V65Z" fill="#3069E1"/>
<rect x="160" y="51" width="16" height="16" rx="8" fill="#3069E1"/>
<rect x="160" y="51" width="16" height="16" rx="8" stroke="white" stroke-width="4"/>
<rect x="100" y="143" width="16" height="16" rx="8" fill="#13944B"/>
<rect x="100" y="143" width="16" height="16" rx="8" stroke="white" stroke-width="4"/>
<g clip-path="url(#clip4_7415_54214)">
<path d="M292.101 135.573L270.876 144.202C270.365 145.633 270.07 147.133 270 148.651L295.833 138.15C294.722 137.113 293.464 136.245 292.101 135.573Z" fill="#FF7324"/>
<path d="M297.127 139.519L270.025 150.537C270.128 151.824 270.39 153.092 270.807 154.314L299.203 142.769C298.651 141.602 297.953 140.51 297.127 139.519Z" fill="#FCCE3A"/>
<path d="M279.556 135.135C276.318 136.445 273.628 138.825 271.932 141.878L289.723 134.642C286.377 133.642 282.789 133.816 279.556 135.135Z" fill="#FF7324"/>
<path d="M291.121 163.58C294.358 162.269 297.048 159.889 298.745 156.837L280.949 164.068C284.296 165.073 287.886 164.901 291.121 163.58Z" fill="#FF7324"/>
<path d="M299.858 144.396L271.492 155.941C272.047 157.106 272.744 158.198 273.567 159.191L300.645 148.173C300.545 146.886 300.281 145.616 299.858 144.396Z" fill="#FF7324"/>
<path d="M299.799 154.508C300.308 153.076 300.603 151.577 300.675 150.059L274.842 160.56C275.952 161.598 277.21 162.467 278.574 163.137L299.799 154.508Z" fill="#9C6DFF"/>
</g>
</g>
<defs>
<filter id="filter0_b_7415_54214" x="203" y="94" width="47" height="145" filterUnits="userSpaceOnUse" color-interpolation-filters="sRGB">
<feFlood flood-opacity="0" result="BackgroundImageFix"/>
<feGaussianBlur in="BackgroundImageFix" stdDeviation="2"/>
<feComposite in2="SourceAlpha" operator="in" result="effect1_backgroundBlur_7415_54214"/>
<feBlend mode="normal" in="SourceGraphic" in2="effect1_backgroundBlur_7415_54214" result="shape"/>
</filter>
<filter id="filter1_b_7415_54214" x="262" y="189" width="47" height="50" filterUnits="userSpaceOnUse" color-interpolation-filters="sRGB">
<feFlood flood-opacity="0" result="BackgroundImageFix"/>
<feGaussianBlur in="BackgroundImageFix" stdDeviation="2"/>
<feComposite in2="SourceAlpha" operator="in" result="effect1_backgroundBlur_7415_54214"/>
<feBlend mode="normal" in="SourceGraphic" in2="effect1_backgroundBlur_7415_54214" result="shape"/>
</filter>
<radialGradient id="paint0_radial_7415_54214" cx="0" cy="0" r="1" gradientUnits="userSpaceOnUse" gradientTransform="translate(216.053 148.5) rotate(90.2146) scale(155.489 226.222)">
<stop/>
<stop offset="1" stop-opacity="0"/>
</radialGradient>
<clipPath id="clip0_7415_54214">
<rect width="395" height="275" fill="white"/>
</clipPath>
<clipPath id="clip1_7415_54214">
<rect width="482.625" height="482.625" fill="white" transform="translate(-44.1758 -97.0117)"/>
</clipPath>
<clipPath id="clip2_7415_54214">
<rect x="-44.1758" y="-97.0117" width="482.625" height="482.625" fill="white"/>
</clipPath>
<clipPath id="clip3_7415_54214">
<rect x="-44.1758" y="-97.0117" width="482.625" height="482.625" fill="white"/>
</clipPath>
<clipPath id="clip4_7415_54214">
<rect width="30.6752" height="30.71" fill="white" transform="translate(270 134)"/>
</clipPath>
</defs>
</svg>
