<svg width="395" height="275" viewBox="0 0 395 275" fill="none" xmlns="http://www.w3.org/2000/svg">
<g clip-path="url(#clip0_7415_54349)">
<path d="M48.5245 203.273V212H46.9435V204.811H46.8924L44.8512 206.115V204.666L47.0202 203.273H48.5245Z" fill="#525B63"/>
<path d="M98.9748 212V210.858L102.005 207.888C102.294 207.595 102.536 207.335 102.729 207.108C102.922 206.881 103.067 206.661 103.164 206.447C103.26 206.234 103.309 206.007 103.309 205.766C103.309 205.49 103.246 205.254 103.121 205.058C102.996 204.859 102.824 204.706 102.605 204.598C102.387 204.49 102.138 204.436 101.86 204.436C101.573 204.436 101.321 204.496 101.105 204.615C100.89 204.732 100.722 204.898 100.603 205.114C100.486 205.33 100.428 205.587 100.428 205.885H98.9237C98.9237 205.331 99.0501 204.849 99.3029 204.44C99.5558 204.031 99.9038 203.714 100.347 203.49C100.793 203.266 101.304 203.153 101.881 203.153C102.466 203.153 102.98 203.263 103.424 203.482C103.867 203.7 104.211 204 104.455 204.381C104.702 204.761 104.826 205.196 104.826 205.685C104.826 206.011 104.763 206.332 104.638 206.648C104.513 206.963 104.293 207.312 103.978 207.696C103.665 208.08 103.226 208.544 102.661 209.089L101.157 210.619V210.679H104.958V212H98.9748Z" fill="#525B63"/>
<path d="M158.107 212.119C157.493 212.119 156.948 212.014 156.471 211.804C155.996 211.594 155.621 211.301 155.346 210.926C155.07 210.551 154.924 210.118 154.907 209.626H156.509C156.523 209.862 156.601 210.068 156.743 210.244C156.885 210.418 157.074 210.553 157.31 210.649C157.546 210.746 157.81 210.794 158.103 210.794C158.415 210.794 158.692 210.74 158.934 210.632C159.175 210.521 159.364 210.368 159.5 210.172C159.637 209.976 159.703 209.75 159.701 209.494C159.703 209.23 159.635 208.997 159.496 208.795C159.357 208.594 159.155 208.436 158.891 208.322C158.63 208.209 158.314 208.152 157.945 208.152H157.174V206.933H157.945C158.249 206.933 158.515 206.881 158.742 206.776C158.972 206.67 159.152 206.523 159.283 206.332C159.414 206.139 159.478 205.916 159.475 205.663C159.478 205.416 159.422 205.202 159.309 205.02C159.198 204.835 159.04 204.692 158.836 204.589C158.634 204.487 158.397 204.436 158.124 204.436C157.857 204.436 157.61 204.484 157.382 204.581C157.155 204.678 156.972 204.815 156.833 204.994C156.694 205.17 156.62 205.381 156.611 205.625H155.09C155.101 205.136 155.242 204.707 155.512 204.338C155.784 203.966 156.148 203.676 156.603 203.469C157.057 203.259 157.567 203.153 158.132 203.153C158.715 203.153 159.221 203.263 159.65 203.482C160.081 203.697 160.415 203.989 160.651 204.355C160.887 204.722 161.005 205.126 161.005 205.57C161.007 206.061 160.863 206.473 160.57 206.805C160.28 207.138 159.9 207.355 159.428 207.457V207.526C160.042 207.611 160.512 207.838 160.838 208.207C161.168 208.574 161.331 209.03 161.328 209.575C161.328 210.064 161.189 210.501 160.911 210.888C160.635 211.271 160.255 211.572 159.769 211.791C159.286 212.01 158.732 212.119 158.107 212.119Z" fill="#525B63"/>
<path d="M210.817 210.381V209.124L214.52 203.273H215.569V205.062H214.929L212.436 209.013V209.081H217.605V210.381H210.817ZM214.98 212V209.997L214.998 209.435V203.273H216.489V212H214.98Z" fill="#525B63"/>
<path d="M263.009 212.119C262.441 212.119 261.932 212.013 261.483 211.8C261.034 211.584 260.678 211.288 260.414 210.913C260.152 210.538 260.013 210.109 259.996 209.626H261.53C261.559 209.984 261.713 210.277 261.995 210.504C262.276 210.729 262.614 210.841 263.009 210.841C263.319 210.841 263.594 210.77 263.836 210.628C264.077 210.486 264.267 210.288 264.407 210.036C264.546 209.783 264.614 209.494 264.611 209.17C264.614 208.841 264.544 208.548 264.402 208.293C264.26 208.037 264.066 207.837 263.819 207.692C263.571 207.544 263.287 207.47 262.966 207.47C262.705 207.467 262.448 207.516 262.195 207.615C261.942 207.714 261.742 207.845 261.594 208.007L260.167 207.773L260.623 203.273H265.685V204.594H261.931L261.679 206.908H261.73C261.892 206.717 262.121 206.56 262.417 206.435C262.712 206.307 263.036 206.243 263.388 206.243C263.917 206.243 264.388 206.368 264.803 206.618C265.218 206.865 265.544 207.206 265.783 207.641C266.022 208.075 266.141 208.572 266.141 209.132C266.141 209.709 266.007 210.223 265.74 210.675C265.476 211.124 265.108 211.477 264.637 211.736C264.168 211.991 263.625 212.119 263.009 212.119Z" fill="#525B63"/>
<path d="M316.171 212.119C315.753 212.116 315.346 212.044 314.948 211.902C314.55 211.757 314.192 211.523 313.874 211.199C313.556 210.872 313.303 210.439 313.115 209.899C312.928 209.357 312.836 208.685 312.838 207.884C312.838 207.136 312.918 206.47 313.077 205.885C313.236 205.3 313.465 204.805 313.763 204.402C314.061 203.996 314.421 203.686 314.841 203.473C315.265 203.26 315.738 203.153 316.26 203.153C316.809 203.153 317.294 203.261 317.718 203.477C318.144 203.693 318.488 203.989 318.749 204.364C319.01 204.736 319.172 205.156 319.235 205.625H317.679C317.6 205.29 317.436 205.023 317.189 204.824C316.945 204.622 316.635 204.521 316.26 204.521C315.655 204.521 315.189 204.784 314.863 205.31C314.539 205.835 314.375 206.557 314.373 207.474H314.432C314.571 207.224 314.752 207.01 314.973 206.831C315.195 206.652 315.445 206.514 315.723 206.418C316.005 206.318 316.301 206.268 316.614 206.268C317.125 206.268 317.584 206.391 317.99 206.635C318.4 206.879 318.723 207.216 318.962 207.645C319.201 208.071 319.319 208.56 319.316 209.111C319.319 209.685 319.188 210.2 318.924 210.658C318.659 211.112 318.292 211.47 317.82 211.732C317.348 211.993 316.799 212.122 316.171 212.119ZM316.162 210.841C316.472 210.841 316.749 210.766 316.993 210.615C317.238 210.464 317.431 210.261 317.573 210.006C317.715 209.75 317.784 209.463 317.782 209.145C317.784 208.832 317.716 208.55 317.577 208.297C317.441 208.044 317.252 207.844 317.01 207.696C316.769 207.548 316.493 207.474 316.184 207.474C315.953 207.474 315.739 207.518 315.54 207.607C315.341 207.695 315.168 207.817 315.02 207.973C314.873 208.126 314.756 208.305 314.671 208.51C314.588 208.712 314.546 208.928 314.543 209.158C314.546 209.462 314.617 209.741 314.756 209.997C314.895 210.253 315.087 210.457 315.331 210.611C315.576 210.764 315.853 210.841 316.162 210.841Z" fill="#525B63"/>
<path d="M366.294 212L370.006 204.653V204.594H365.698V203.273H371.642V204.624L367.935 212H366.294Z" fill="#525B63"/>
<g filter="url(#filter0_f_7415_54349)">
<circle cx="256.199" cy="102" r="36" fill="#27C052"/>
</g>
<line x1="37.6992" y1="33" x2="37.6992" y2="242" stroke="url(#paint0_linear_7415_54349)" stroke-dasharray="6 6"/>
<line x1="91.0332" y1="33" x2="91.0332" y2="242" stroke="url(#paint1_linear_7415_54349)" stroke-dasharray="6 6"/>
<line x1="144.365" y1="33" x2="144.365" y2="242" stroke="url(#paint2_linear_7415_54349)" stroke-dasharray="6 6"/>
<line x1="197.699" y1="33" x2="197.699" y2="242" stroke="url(#paint3_linear_7415_54349)" stroke-dasharray="6 6"/>
<line x1="251.032" y1="33" x2="251.032" y2="242" stroke="url(#paint4_linear_7415_54349)" stroke-dasharray="6 6"/>
<line x1="304.366" y1="33" x2="304.366" y2="242" stroke="url(#paint5_linear_7415_54349)" stroke-dasharray="6 6"/>
<line x1="357.699" y1="33" x2="357.699" y2="242" stroke="url(#paint6_linear_7415_54349)" stroke-dasharray="6 6"/>
<g filter="url(#filter1_b_7415_54349)">
<path d="M38.1992 249L61.7165 212.716C68.4115 202.387 81.4196 198.148 92.9148 202.551V202.551C107.454 208.119 123.601 199.783 127.483 184.706L132.312 165.948C138.155 143.249 167.145 136.546 182.359 154.375V154.375C195.675 169.98 220.549 167.163 230.038 148.975L234.199 141L247.281 115.287C257.149 95.8913 276.513 83.1355 298.229 81.7253V81.7253C323.544 80.0815 345.267 63.0977 352.97 38.9275L369.199 -12" stroke="#2E2F31" stroke-opacity="0.72" stroke-width="5"/>
</g>
<g filter="url(#filter2_b_7415_54349)">
<path d="M38.1992 249L61.7165 212.716C68.4115 202.387 81.4196 198.148 92.9148 202.551V202.551C107.454 208.119 123.601 199.783 127.483 184.706L132.312 165.948C138.155 143.249 167.145 136.546 182.359 154.375V154.375C195.675 169.98 220.549 167.163 230.038 148.975L234.199 141L256.199 102" stroke="url(#paint7_linear_7415_54349)" stroke-opacity="0.72" stroke-width="5"/>
</g>
<circle cx="256.699" cy="101.5" r="10.5" fill="white"/>
<circle cx="256.699" cy="101.5" r="18" stroke="#289057" stroke-opacity="0.41" stroke-width="15"/>
<g clip-path="url(#clip1_7415_54349)">
<path d="M68 55H50V73H68V55Z" fill="#FFCD2D"/>
<path d="M86 73H68V91H86V73Z" fill="#FF7324"/>
</g>
</g>
<defs>
<filter id="filter0_f_7415_54349" x="70.1992" y="-84" width="372" height="372" filterUnits="userSpaceOnUse" color-interpolation-filters="sRGB">
<feFlood flood-opacity="0" result="BackgroundImageFix"/>
<feBlend mode="normal" in="SourceGraphic" in2="BackgroundImageFix" result="shape"/>
<feGaussianBlur stdDeviation="75" result="effect1_foregroundBlur_7415_54349"/>
</filter>
<filter id="filter1_b_7415_54349" x="31.1016" y="-17.759" width="345.479" height="273.119" filterUnits="userSpaceOnUse" color-interpolation-filters="sRGB">
<feFlood flood-opacity="0" result="BackgroundImageFix"/>
<feGaussianBlur in="BackgroundImageFix" stdDeviation="2.5"/>
<feComposite in2="SourceAlpha" operator="in" result="effect1_backgroundBlur_7415_54349"/>
<feBlend mode="normal" in="SourceGraphic" in2="effect1_backgroundBlur_7415_54349" result="shape"/>
</filter>
<filter id="filter2_b_7415_54349" x="31.1016" y="95.7717" width="232.275" height="159.588" filterUnits="userSpaceOnUse" color-interpolation-filters="sRGB">
<feFlood flood-opacity="0" result="BackgroundImageFix"/>
<feGaussianBlur in="BackgroundImageFix" stdDeviation="2.5"/>
<feComposite in2="SourceAlpha" operator="in" result="effect1_backgroundBlur_7415_54349"/>
<feBlend mode="normal" in="SourceGraphic" in2="effect1_backgroundBlur_7415_54349" result="shape"/>
</filter>
<linearGradient id="paint0_linear_7415_54349" x1="37.1992" y1="24.3716" x2="36.7397" y2="242" gradientUnits="userSpaceOnUse">
<stop stop-color="#98A2B3" stop-opacity="0"/>
<stop offset="1" stop-color="#98A2B3" stop-opacity="0.3"/>
</linearGradient>
<linearGradient id="paint1_linear_7415_54349" x1="90.5332" y1="24.3716" x2="90.0736" y2="242" gradientUnits="userSpaceOnUse">
<stop stop-color="#98A2B3" stop-opacity="0"/>
<stop offset="1" stop-color="#98A2B3" stop-opacity="0.3"/>
</linearGradient>
<linearGradient id="paint2_linear_7415_54349" x1="143.865" y1="24.3716" x2="143.406" y2="242" gradientUnits="userSpaceOnUse">
<stop stop-color="#98A2B3" stop-opacity="0"/>
<stop offset="1" stop-color="#98A2B3" stop-opacity="0.3"/>
</linearGradient>
<linearGradient id="paint3_linear_7415_54349" x1="197.199" y1="24.3716" x2="196.74" y2="242" gradientUnits="userSpaceOnUse">
<stop stop-color="#98A2B3" stop-opacity="0"/>
<stop offset="1" stop-color="#98A2B3" stop-opacity="0.3"/>
</linearGradient>
<linearGradient id="paint4_linear_7415_54349" x1="250.532" y1="24.3716" x2="250.073" y2="242" gradientUnits="userSpaceOnUse">
<stop stop-color="#98A2B3" stop-opacity="0"/>
<stop offset="1" stop-color="#98A2B3" stop-opacity="0.3"/>
</linearGradient>
<linearGradient id="paint5_linear_7415_54349" x1="303.866" y1="24.3716" x2="303.407" y2="242" gradientUnits="userSpaceOnUse">
<stop stop-color="#98A2B3" stop-opacity="0"/>
<stop offset="1" stop-color="#98A2B3" stop-opacity="0.3"/>
</linearGradient>
<linearGradient id="paint6_linear_7415_54349" x1="357.199" y1="24.3716" x2="356.74" y2="242" gradientUnits="userSpaceOnUse">
<stop stop-color="#98A2B3" stop-opacity="0"/>
<stop offset="1" stop-color="#98A2B3" stop-opacity="0.3"/>
</linearGradient>
<linearGradient id="paint7_linear_7415_54349" x1="256.199" y1="100" x2="38.1993" y2="249" gradientUnits="userSpaceOnUse">
<stop stop-color="#30D779"/>
<stop offset="1" stop-color="#30D779" stop-opacity="0"/>
</linearGradient>
<clipPath id="clip0_7415_54349">
<rect width="395" height="275" fill="white" transform="translate(0.199219)"/>
</clipPath>
<clipPath id="clip1_7415_54349">
<rect width="36" height="36" fill="white" transform="translate(50 55)"/>
</clipPath>
</defs>
</svg>
