<svg width="113" height="19" viewBox="0 0 113 19" fill="none" xmlns="http://www.w3.org/2000/svg">
<path d="M33.1283 1.06208H44.2403C44.3363 1.06208 44.4003 1.10208 44.4323 1.18208C44.4803 1.24608 44.4723 1.31808 44.4083 1.39808L42.6323 3.72608C42.4243 3.98208 42.1603 4.11008 41.8403 4.11008H35.9123V7.95008H41.9123C42.1043 7.95008 42.2003 8.04608 42.2003 8.23808V10.6861C42.2003 10.8941 42.1043 10.9981 41.9123 10.9981H35.9123V17.5741C35.9123 17.7661 35.8083 17.8621 35.6003 17.8621H33.1283C33.0483 17.8621 32.9763 17.8381 32.9123 17.7901C32.8643 17.7261 32.8403 17.6541 32.8403 17.5741V1.35008C32.8403 1.27008 32.8643 1.20608 32.9123 1.15808C32.9763 1.09408 33.0483 1.06208 33.1283 1.06208Z" fill="white"/>
<path d="M45.6449 9.39008C45.6449 8.15808 45.8689 7.01408 46.3169 5.95808C46.7809 4.88608 47.3969 3.96608 48.1649 3.19808C48.9489 2.41408 49.8689 1.80608 50.9249 1.37408C51.9809 0.926078 53.1169 0.710078 54.3329 0.726078C55.5489 0.742078 56.6849 0.982078 57.7409 1.44608C58.7969 1.91008 59.7089 2.54208 60.4769 3.34208C61.2609 4.14208 61.8769 5.07808 62.3249 6.15008C62.7729 7.20608 62.9889 8.33408 62.9729 9.53408C62.9569 10.7501 62.7169 11.8861 62.2529 12.9421C61.7889 13.9981 61.1569 14.9181 60.3569 15.7021C59.5729 16.4861 58.6529 17.1021 57.5969 17.5501C56.5409 17.9821 55.4049 18.1981 54.1889 18.1981C52.9889 18.1981 51.8609 17.9741 50.8049 17.5261C49.7649 17.0621 48.8609 16.4381 48.0929 15.6541C47.3249 14.8541 46.7249 13.9181 46.2929 12.8461C45.8609 11.7741 45.6449 10.6221 45.6449 9.39008ZM48.7169 9.51008C48.7169 10.2941 48.8689 11.0381 49.1729 11.7421C49.4769 12.4461 49.8849 13.0621 50.3969 13.5901C50.9089 14.1181 51.5009 14.5341 52.1729 14.8381C52.8449 15.1421 53.5649 15.2941 54.3329 15.2941C55.0849 15.2781 55.7969 15.1101 56.4689 14.7901C57.1409 14.4701 57.7249 14.0461 58.2209 13.5181C58.7329 12.9741 59.1329 12.3501 59.4209 11.6461C59.7089 10.9261 59.8449 10.1741 59.8289 9.39008C59.8289 8.60608 59.6769 7.86208 59.3729 7.15808C59.0689 6.45408 58.6609 5.84608 58.1489 5.33408C57.6369 4.80608 57.0369 4.39008 56.3489 4.08608C55.6769 3.78208 54.9649 3.63008 54.2129 3.63008C53.4609 3.64608 52.7489 3.81408 52.0769 4.13408C51.4049 4.43808 50.8209 4.86208 50.3249 5.40608C49.8289 5.93408 49.4369 6.55008 49.1489 7.25408C48.8609 7.95808 48.7169 8.71008 48.7169 9.51008Z" fill="white"/>
<path d="M65.7231 1.30208C65.7231 1.22208 65.7471 1.15808 65.7951 1.11008C65.8591 1.04608 65.9311 1.01408 66.0111 1.01408H78.6831C78.7631 1.01408 78.8271 1.04608 78.8751 1.11008C78.9391 1.15808 78.9711 1.22208 78.9711 1.30208V4.83008C78.9711 5.05408 78.8991 5.25408 78.7551 5.43008L74.9632 10.3981L80.3871 17.4781C80.4351 17.5581 80.4351 17.6381 80.3871 17.7181C80.3551 17.7821 80.2991 17.8141 80.2191 17.8141H77.1711C76.8511 17.8141 76.5871 17.6861 76.3791 17.4301L71.1231 10.5901C71.0111 10.4621 71.0111 10.3421 71.1231 10.2301L75.8511 4.06208H68.7951V17.5261C68.7951 17.7181 68.6911 17.8141 68.4831 17.8141H66.0111C65.9311 17.8141 65.8591 17.7901 65.7951 17.7421C65.7471 17.6781 65.7231 17.6061 65.7231 17.5261V1.30208Z" fill="white"/>
<path d="M80.8246 9.39008C80.8246 8.15808 81.0486 7.01408 81.4966 5.95808C81.9606 4.88608 82.5766 3.96608 83.3446 3.19808C84.1286 2.41408 85.0486 1.80608 86.1046 1.37408C87.1606 0.926078 88.2966 0.710078 89.5126 0.726078C90.6806 0.742078 91.7766 0.966078 92.8006 1.39808C93.8246 1.81408 94.7206 2.39808 95.4886 3.15008C95.6166 3.27808 95.6246 3.40608 95.5126 3.53408L93.9766 5.52608C93.9286 5.60608 93.8566 5.65408 93.7606 5.67008C93.6806 5.67008 93.6086 5.63008 93.5446 5.55008C93.0326 4.95808 92.4166 4.48608 91.6966 4.13408C90.9766 3.78208 90.2086 3.61408 89.3926 3.63008C88.6406 3.63008 87.9286 3.79008 87.2566 4.11008C86.5846 4.43008 86.0006 4.85408 85.5046 5.38208C85.0086 5.91008 84.6166 6.53408 84.3286 7.25408C84.0406 7.95808 83.8966 8.71008 83.8966 9.51008C83.8966 10.2941 84.0486 11.0381 84.3526 11.7421C84.6566 12.4461 85.0646 13.0621 85.5766 13.5901C86.0886 14.1181 86.6806 14.5341 87.3526 14.8381C88.0246 15.1421 88.7446 15.2941 89.5126 15.2941C90.1366 15.2781 90.7286 15.1581 91.2886 14.9341C91.8646 14.7101 92.3846 14.4061 92.8486 14.0221C93.3286 13.6381 93.7366 13.1901 94.0726 12.6781C94.4086 12.1501 94.6566 11.5821 94.8166 10.9741H90.1366C90.0566 10.9741 89.9926 10.9421 89.9446 10.8781C89.9126 10.7981 89.9206 10.7181 89.9686 10.6381L91.5046 8.38208C91.7126 8.09408 91.9846 7.95008 92.3206 7.95008H98.0086C98.0566 8.22208 98.0886 8.48608 98.1046 8.74208C98.1366 8.99808 98.1446 9.26208 98.1286 9.53408C98.1126 10.7501 97.8726 11.8861 97.4086 12.9421C96.9606 13.9981 96.3366 14.9181 95.5366 15.7021C94.7526 16.4861 93.8326 17.1021 92.7766 17.5501C91.7206 17.9821 90.5846 18.1981 89.3686 18.1981C88.1686 18.1981 87.0406 17.9741 85.9846 17.5261C84.9446 17.0621 84.0406 16.4381 83.2726 15.6541C82.5046 14.8541 81.9046 13.9181 81.4726 12.8461C81.0406 11.7741 80.8246 10.6221 80.8246 9.39008Z" fill="white"/>
<path d="M101.191 1.06208H112.303C112.399 1.06208 112.463 1.10208 112.495 1.18208C112.543 1.24608 112.535 1.31808 112.471 1.39808L110.695 3.72608C110.487 3.98208 110.223 4.11008 109.903 4.11008H103.975V7.95008H109.975C110.167 7.95008 110.263 8.04608 110.263 8.23808V10.6861C110.263 10.8941 110.167 10.9981 109.975 10.9981H103.975V14.8141H111.559C111.639 14.8141 111.703 14.8461 111.751 14.9101C111.815 14.9581 111.847 15.0221 111.847 15.1021V17.5741C111.847 17.7661 111.751 17.8621 111.559 17.8621H101.191C101.111 17.8621 101.039 17.8381 100.975 17.7901C100.927 17.7261 100.903 17.6541 100.903 17.5741V1.35008C100.903 1.27008 100.927 1.20608 100.975 1.15808C101.039 1.09408 101.111 1.06208 101.191 1.06208Z" fill="white"/>
<path d="M0.413744 17.5262L12.7497 1.44617C12.9577 1.19016 13.2217 1.06216 13.5417 1.06216H15.8217C16.0137 1.06216 16.1097 1.15816 16.1097 1.35016V17.5742C16.1097 17.7662 16.0137 17.8622 15.8217 17.8622H13.5417C13.2217 17.8622 12.9577 17.7342 12.7497 17.4782L8.59774 12.0542L4.42174 17.4782C4.21374 17.7342 3.94974 17.8622 3.62974 17.8622H0.581744C0.501744 17.8622 0.437744 17.8302 0.389744 17.7662C0.341744 17.6862 0.349744 17.6062 0.413744 17.5262ZM10.5897 9.46216L13.0617 12.6782V6.24616L10.5897 9.46216Z" fill="url(#paint0_linear_67_31446)"/>
<path d="M19.8627 1.06216H22.3347C22.5427 1.06216 22.6467 1.15816 22.6467 1.35016V17.5742C22.6467 17.7662 22.5427 17.8622 22.3347 17.8622H19.8627C19.7827 17.8622 19.7107 17.8382 19.6467 17.7902C19.5987 17.7262 19.5747 17.6542 19.5747 17.5742V1.35016C19.5747 1.27016 19.5987 1.20616 19.6467 1.15816C19.7107 1.09416 19.7827 1.06216 19.8627 1.06216Z" fill="url(#paint1_linear_67_31446)"/>
<defs>
<linearGradient id="paint0_linear_67_31446" x1="22.6467" y1="1.06216" x2="22.6467" y2="17.8622" gradientUnits="userSpaceOnUse">
<stop stop-color="#FF5C00"/>
<stop offset="0.314205" stop-color="#FFB700"/>
<stop offset="1" stop-color="#FF6625"/>
</linearGradient>
<linearGradient id="paint1_linear_67_31446" x1="22.6467" y1="1.06216" x2="22.6467" y2="17.8622" gradientUnits="userSpaceOnUse">
<stop stop-color="#FF5C00"/>
<stop offset="0.314205" stop-color="#FFB700"/>
<stop offset="1" stop-color="#FF6625"/>
</linearGradient>
</defs>
</svg>
