<svg width="434" height="78" viewBox="0 0 434 78" fill="none" xmlns="http://www.w3.org/2000/svg">
<g filter="url(#filter0_b_7415_54663)">
<rect width="138" height="34" rx="6" fill="#4E5053" fill-opacity="0.5"/>
<rect x="0.5" y="0.5" width="137" height="33" rx="5.5" stroke="#525B63"/>
<rect x="9" y="9" width="16" height="16" rx="8" fill="#FCCE3A"/>
<g clip-path="url(#clip0_7415_54663)">
<path d="M16.2244 14.952V15.0386H16.3744L16.4494 14.9086L16.3744 14.8654V12.2812C16.3744 12.1259 16.5005 12 16.6559 12H17.7816C17.937 12 18.063 12.1259 18.063 12.2812V14.8652L17.988 14.9085L18.063 15.0384H18.213V14.9518L16.2244 14.952ZM16.2244 14.952L13.985 13.6599C13.8504 13.5822 13.6783 13.6284 13.6006 13.7629L16.2244 14.952ZM18.8323 16.3701L18.6071 16.5L18.8323 16.6299L21.2217 18.0086C21.2846 18.0449 21.306 18.125 21.2698 18.1877L21.2698 18.1877L20.7069 19.1621L20.7069 19.1621C20.6706 19.2249 20.5903 19.2465 20.5273 19.2102L20.5273 19.2102L18.138 17.8315L17.913 17.7017V17.9614V20.7188C17.913 20.7912 17.8542 20.85 17.7816 20.85H16.6559C16.5832 20.85 16.5244 20.7912 16.5244 20.7188V17.9616V17.7019L16.2995 17.8317L13.9102 19.2103C13.9102 19.2103 13.9102 19.2103 13.9102 19.2103C13.8471 19.2466 13.7667 19.2249 13.7305 19.1622L13.1676 18.1879L13.1676 18.1879C13.1314 18.1252 13.1529 18.0449 13.2157 18.0086L15.6051 16.6299L15.8303 16.5L15.6051 16.3701L13.2157 14.9914C13.2157 14.9914 13.2157 14.9914 13.2157 14.9914C13.1529 14.9551 13.1314 14.8748 13.1676 14.8121L13.0378 14.7371L13.1676 14.8121L13.7305 13.838C13.7305 13.838 13.7305 13.838 13.7305 13.838C13.7668 13.7751 13.8472 13.7535 13.9101 13.7898L13.9101 13.7898L16.2995 15.1685L16.5244 15.2983V15.0386V12.2812C16.5244 12.2088 16.5832 12.15 16.6559 12.15H17.7816C17.8542 12.15 17.913 12.2088 17.913 12.2812V15.0384V15.2981L18.138 15.1683L20.5273 13.7897L20.5273 13.7896C20.5902 13.7534 20.6706 13.7749 20.7069 13.8378L21.2697 14.8121C21.3061 14.875 21.2845 14.9552 21.2217 14.9914L18.8323 16.3701Z" fill="#101112" stroke="#FCCE3A" stroke-width="0.3"/>
</g>
<path d="M37.2756 12.7727V21.5H35.9588V12.7727H37.2756ZM40.3651 17.6136V21.5H39.0909V14.9545H40.3139V16.0199H40.3949C40.5455 15.6733 40.7813 15.3949 41.1023 15.1847C41.4261 14.9744 41.8338 14.8693 42.3253 14.8693C42.7713 14.8693 43.1619 14.9631 43.4972 15.1506C43.8324 15.3352 44.0923 15.6108 44.277 15.9773C44.4616 16.3437 44.554 16.7969 44.554 17.3366V21.5H43.2798V17.4901C43.2798 17.0156 43.1563 16.6449 42.9091 16.3778C42.6619 16.108 42.3224 15.973 41.8906 15.973C41.5952 15.973 41.3324 16.0369 41.1023 16.1648C40.875 16.2926 40.6946 16.4801 40.5611 16.7273C40.4304 16.9716 40.3651 17.267 40.3651 17.6136ZM51.6278 14.9545L49.2543 21.5H47.8906L45.5128 14.9545H46.8807L48.5384 19.9915H48.6065L50.2599 14.9545H51.6278ZM55.4237 21.6321C54.7788 21.6321 54.2234 21.4943 53.7575 21.2188C53.2944 20.9403 52.9364 20.5497 52.6836 20.0469C52.4336 19.5412 52.3086 18.9489 52.3086 18.2699C52.3086 17.5994 52.4336 17.0085 52.6836 16.4972C52.9364 15.9858 53.2887 15.5866 53.7404 15.2997C54.195 15.0128 54.7262 14.8693 55.3342 14.8693C55.7035 14.8693 56.0614 14.9304 56.408 15.0526C56.7546 15.1747 57.0657 15.3665 57.3413 15.6278C57.6168 15.8892 57.8342 16.2287 57.9933 16.6463C58.1523 17.0611 58.2319 17.5653 58.2319 18.1591V18.6108H53.0288V17.6562H56.9833C56.9833 17.321 56.9151 17.0241 56.7788 16.7656C56.6424 16.5043 56.4506 16.2983 56.2035 16.1477C55.9592 15.9972 55.6722 15.9219 55.3427 15.9219C54.9847 15.9219 54.6722 16.0099 54.4052 16.1861C54.141 16.3594 53.9364 16.5866 53.7915 16.8679C53.6495 17.1463 53.5785 17.4489 53.5785 17.7756V18.5213C53.5785 18.9588 53.6552 19.331 53.8086 19.6378C53.9648 19.9446 54.1822 20.179 54.4606 20.3409C54.739 20.5 55.0643 20.5795 55.4364 20.5795C55.6779 20.5795 55.8981 20.5455 56.0969 20.4773C56.2958 20.4062 56.4677 20.3011 56.6126 20.1619C56.7575 20.0227 56.8683 19.8509 56.945 19.6463L58.1509 19.8636C58.0543 20.2187 57.881 20.5298 57.631 20.7969C57.3839 21.0611 57.0728 21.267 56.6978 21.4148C56.3256 21.5597 55.9009 21.6321 55.4237 21.6321ZM64.5504 16.5526L63.3956 16.7571C63.3473 16.6094 63.2706 16.4687 63.1655 16.3352C63.0632 16.2017 62.924 16.0923 62.7479 16.0071C62.5717 15.9219 62.3516 15.8793 62.0874 15.8793C61.7266 15.8793 61.4254 15.9602 61.1839 16.1222C60.9425 16.2812 60.8217 16.4872 60.8217 16.7401C60.8217 16.9588 60.9027 17.1349 61.0646 17.2685C61.2266 17.402 61.4879 17.5114 61.8487 17.5966L62.8885 17.8352C63.4908 17.9744 63.9396 18.1889 64.2351 18.4787C64.5305 18.7685 64.6783 19.1449 64.6783 19.608C64.6783 20 64.5646 20.3494 64.3374 20.6562C64.1129 20.9602 63.799 21.1989 63.3956 21.3722C62.995 21.5455 62.5305 21.6321 62.0021 21.6321C61.2692 21.6321 60.6712 21.4759 60.2081 21.1634C59.745 20.848 59.4609 20.4006 59.3558 19.821L60.5874 19.6335C60.6641 19.9545 60.8217 20.1974 61.0604 20.3622C61.299 20.5241 61.6101 20.6051 61.9936 20.6051C62.4112 20.6051 62.745 20.5185 62.995 20.3452C63.245 20.169 63.37 19.9545 63.37 19.7017C63.37 19.4972 63.2933 19.3253 63.1399 19.1861C62.9893 19.0469 62.7578 18.9418 62.4453 18.8707L61.3374 18.6278C60.7266 18.4886 60.2749 18.267 59.9822 17.9631C59.6925 17.6591 59.5476 17.2741 59.5476 16.8082C59.5476 16.4219 59.6555 16.0838 59.8714 15.794C60.0874 15.5043 60.3857 15.2784 60.7663 15.1165C61.147 14.9517 61.5831 14.8693 62.0746 14.8693C62.782 14.8693 63.3388 15.0227 63.745 15.3295C64.1513 15.6335 64.4197 16.0412 64.5504 16.5526ZM69.1346 14.9545V15.9773H65.5593V14.9545H69.1346ZM66.5181 13.3864H67.7923V19.5781C67.7923 19.8253 67.8292 20.0114 67.9031 20.1364C67.9769 20.2585 68.0721 20.3423 68.1886 20.3878C68.3079 20.4304 68.4371 20.4517 68.5763 20.4517C68.6786 20.4517 68.7681 20.4446 68.8448 20.4304C68.9215 20.4162 68.9812 20.4048 69.0238 20.3963L69.2539 21.4489C69.18 21.4773 69.0749 21.5057 68.9386 21.5341C68.8022 21.5653 68.6317 21.5824 68.4272 21.5852C68.092 21.5909 67.7795 21.5312 67.4897 21.4062C67.1999 21.2812 66.9656 21.0881 66.7866 20.8267C66.6076 20.5653 66.5181 20.2372 66.5181 19.8423V13.3864ZM73.2308 21.6321C72.6172 21.6321 72.0817 21.4915 71.6243 21.2102C71.1669 20.929 70.8118 20.5355 70.5589 20.0298C70.3061 19.5241 70.1797 18.9332 70.1797 18.2571C70.1797 17.5781 70.3061 16.9844 70.5589 16.4759C70.8118 15.9673 71.1669 15.5724 71.6243 15.2912C72.0817 15.0099 72.6172 14.8693 73.2308 14.8693C73.8445 14.8693 74.38 15.0099 74.8374 15.2912C75.2947 15.5724 75.6499 15.9673 75.9027 16.4759C76.1555 16.9844 76.282 17.5781 76.282 18.2571C76.282 18.9332 76.1555 19.5241 75.9027 20.0298C75.6499 20.5355 75.2947 20.929 74.8374 21.2102C74.38 21.4915 73.8445 21.6321 73.2308 21.6321ZM73.2351 20.5625C73.6328 20.5625 73.9624 20.4574 74.2237 20.2472C74.4851 20.0369 74.6783 19.7571 74.8033 19.4077C74.9311 19.0582 74.995 18.6733 74.995 18.2528C74.995 17.8352 74.9311 17.4517 74.8033 17.1023C74.6783 16.75 74.4851 16.4673 74.2237 16.2543C73.9624 16.0412 73.6328 15.9347 73.2351 15.9347C72.8345 15.9347 72.5021 16.0412 72.2379 16.2543C71.9766 16.4673 71.782 16.75 71.6541 17.1023C71.5291 17.4517 71.4666 17.8352 71.4666 18.2528C71.4666 18.6733 71.5291 19.0582 71.6541 19.4077C71.782 19.7571 71.9766 20.0369 72.2379 20.2472C72.5021 20.4574 72.8345 20.5625 73.2351 20.5625ZM77.7042 21.5V14.9545H78.9357V15.9943H79.0039C79.1232 15.642 79.3335 15.3651 79.6346 15.1634C79.9386 14.9588 80.2823 14.8565 80.6658 14.8565C80.7454 14.8565 80.8391 14.8594 80.9471 14.8651C81.0579 14.8707 81.1445 14.8778 81.207 14.8864V16.1051C81.1559 16.0909 81.065 16.0753 80.9343 16.0582C80.8036 16.0384 80.6729 16.0284 80.5423 16.0284C80.2411 16.0284 79.9727 16.0923 79.7369 16.2202C79.5039 16.3452 79.3192 16.5199 79.1829 16.7443C79.0465 16.9659 78.9783 17.2187 78.9783 17.5028V21.5H77.7042ZM85.5877 21.5V12.7727H91.0593V13.9062H86.9045V16.5653H90.7738V17.6946H86.9045V20.3665H91.1104V21.5H85.5877ZM98.3153 14.9545L95.9418 21.5H94.5781L92.2003 14.9545H93.5682L95.2259 19.9915H95.294L96.9474 14.9545H98.3153ZM102.111 21.6321C101.466 21.6321 100.911 21.4943 100.445 21.2188C99.9819 20.9403 99.6239 20.5497 99.3711 20.0469C99.1211 19.5412 98.9961 18.9489 98.9961 18.2699C98.9961 17.5994 99.1211 17.0085 99.3711 16.4972C99.6239 15.9858 99.9762 15.5866 100.428 15.2997C100.882 15.0128 101.414 14.8693 102.022 14.8693C102.391 14.8693 102.749 14.9304 103.096 15.0526C103.442 15.1747 103.753 15.3665 104.029 15.6278C104.304 15.8892 104.522 16.2287 104.681 16.6463C104.84 17.0611 104.919 17.5653 104.919 18.1591V18.6108H99.7163V17.6562H103.671C103.671 17.321 103.603 17.0241 103.466 16.7656C103.33 16.5043 103.138 16.2983 102.891 16.1477C102.647 15.9972 102.36 15.9219 102.03 15.9219C101.672 15.9219 101.36 16.0099 101.093 16.1861C100.828 16.3594 100.624 16.5866 100.479 16.8679C100.337 17.1463 100.266 17.4489 100.266 17.7756V18.5213C100.266 18.9588 100.343 19.331 100.496 19.6378C100.652 19.9446 100.87 20.179 101.148 20.3409C101.426 20.5 101.752 20.5795 102.124 20.5795C102.365 20.5795 102.586 20.5455 102.784 20.4773C102.983 20.4062 103.155 20.3011 103.3 20.1619C103.445 20.0227 103.556 19.8509 103.632 19.6463L104.838 19.8636C104.742 20.2187 104.569 20.5298 104.319 20.7969C104.071 21.0611 103.76 21.267 103.385 21.4148C103.013 21.5597 102.588 21.6321 102.111 21.6321ZM107.607 17.6136V21.5H106.333V14.9545H107.556V16.0199H107.637C107.788 15.6733 108.023 15.3949 108.344 15.1847C108.668 14.9744 109.076 14.8693 109.567 14.8693C110.013 14.8693 110.404 14.9631 110.739 15.1506C111.075 15.3352 111.335 15.6108 111.519 15.9773C111.704 16.3437 111.796 16.7969 111.796 17.3366V21.5H110.522V17.4901C110.522 17.0156 110.398 16.6449 110.151 16.3778C109.904 16.108 109.565 15.973 109.133 15.973C108.837 15.973 108.575 16.0369 108.344 16.1648C108.117 16.2926 107.937 16.4801 107.803 16.7273C107.673 16.9716 107.607 17.267 107.607 17.6136ZM116.56 14.9545V15.9773H112.985V14.9545H116.56ZM113.944 13.3864H115.218V19.5781C115.218 19.8253 115.255 20.0114 115.329 20.1364C115.403 20.2585 115.498 20.3423 115.614 20.3878C115.734 20.4304 115.863 20.4517 116.002 20.4517C116.104 20.4517 116.194 20.4446 116.271 20.4304C116.347 20.4162 116.407 20.4048 116.45 20.3963L116.68 21.4489C116.606 21.4773 116.501 21.5057 116.364 21.5341C116.228 21.5653 116.058 21.5824 115.853 21.5852C115.518 21.5909 115.205 21.5312 114.915 21.4062C114.626 21.2812 114.391 21.0881 114.212 20.8267C114.033 20.5653 113.944 20.2372 113.944 19.8423V13.3864ZM122.769 16.5526L121.614 16.7571C121.566 16.6094 121.489 16.4687 121.384 16.3352C121.282 16.2017 121.143 16.0923 120.967 16.0071C120.79 15.9219 120.57 15.8793 120.306 15.8793C119.945 15.8793 119.644 15.9602 119.403 16.1222C119.161 16.2812 119.04 16.4872 119.04 16.7401C119.04 16.9588 119.121 17.1349 119.283 17.2685C119.445 17.402 119.707 17.5114 120.067 17.5966L121.107 17.8352C121.71 17.9744 122.158 18.1889 122.454 18.4787C122.749 18.7685 122.897 19.1449 122.897 19.608C122.897 20 122.783 20.3494 122.556 20.6562C122.332 20.9602 122.018 21.1989 121.614 21.3722C121.214 21.5455 120.749 21.6321 120.221 21.6321C119.488 21.6321 118.89 21.4759 118.427 21.1634C117.964 20.848 117.68 20.4006 117.575 19.821L118.806 19.6335C118.883 19.9545 119.04 20.1974 119.279 20.3622C119.518 20.5241 119.829 20.6051 120.212 20.6051C120.63 20.6051 120.964 20.5185 121.214 20.3452C121.464 20.169 121.589 19.9545 121.589 19.7017C121.589 19.4972 121.512 19.3253 121.359 19.1861C121.208 19.0469 120.977 18.9418 120.664 18.8707L119.556 18.6278C118.945 18.4886 118.494 18.267 118.201 17.9631C117.911 17.6591 117.766 17.2741 117.766 16.8082C117.766 16.4219 117.874 16.0838 118.09 15.794C118.306 15.5043 118.604 15.2784 118.985 15.1165C119.366 14.9517 119.802 14.8693 120.293 14.8693C121.001 14.8693 121.558 15.0227 121.964 15.3295C122.37 15.6335 122.638 16.0412 122.769 16.5526Z" fill="#D5DBE6"/>
</g>
<g filter="url(#filter1_b_7415_54663)">
<rect x="150" width="128" height="34" rx="6" fill="#4E5053" fill-opacity="0.5"/>
<rect x="150.5" y="0.5" width="127" height="33" rx="5.5" stroke="#525B63"/>
<rect x="159" y="9" width="16" height="16" rx="8" fill="#30D779"/>
<g clip-path="url(#clip1_7415_54663)">
<path d="M166.224 14.952V15.0386H166.374L166.449 14.9086L166.374 14.8654V12.2812C166.374 12.1259 166.5 12 166.656 12H167.782C167.937 12 168.063 12.1259 168.063 12.2812V14.8652L167.988 14.9085L168.063 15.0384H168.213V14.9518L166.224 14.952ZM166.224 14.952L163.985 13.6599C163.85 13.5822 163.678 13.6284 163.601 13.7629L166.224 14.952ZM168.832 16.3701L168.607 16.5L168.832 16.6299L171.222 18.0086C171.285 18.0449 171.306 18.125 171.27 18.1877L171.27 18.1877L170.707 19.1621L170.707 19.1621C170.671 19.2249 170.59 19.2465 170.527 19.2102L170.527 19.2102L168.138 17.8315L167.913 17.7017V17.9614V20.7188C167.913 20.7912 167.854 20.85 167.782 20.85H166.656C166.583 20.85 166.524 20.7912 166.524 20.7188V17.9616V17.7019L166.299 17.8317L163.91 19.2103C163.91 19.2103 163.91 19.2103 163.91 19.2103C163.847 19.2466 163.767 19.2249 163.73 19.1622L163.168 18.1879L163.168 18.1879C163.131 18.1252 163.153 18.0449 163.216 18.0086L165.605 16.6299L165.83 16.5L165.605 16.3701L163.216 14.9914C163.216 14.9914 163.216 14.9914 163.216 14.9914C163.153 14.9551 163.131 14.8748 163.168 14.8121L163.038 14.7371L163.168 14.8121L163.73 13.838C163.73 13.838 163.73 13.838 163.73 13.838C163.767 13.7751 163.847 13.7535 163.91 13.7898L163.91 13.7898L166.299 15.1685L166.524 15.2983V15.0386V12.2812C166.524 12.2088 166.583 12.15 166.656 12.15H167.782C167.854 12.15 167.913 12.2088 167.913 12.2812V15.0384V15.2981L168.138 15.1683L170.527 13.7897L170.527 13.7896C170.59 13.7534 170.671 13.7749 170.707 13.8378L171.27 14.8121C171.306 14.875 171.285 14.9552 171.222 14.9914L168.832 16.3701Z" fill="#101112" stroke="#30D779" stroke-width="0.3"/>
</g>
<path d="M187.668 21.5L185.247 12.7727H186.632L188.332 19.5312H188.413L190.182 12.7727H191.554L193.322 19.5355H193.403L195.099 12.7727H196.489L194.064 21.5H192.739L190.902 14.9631H190.834L188.997 21.5H187.668ZM199.763 21.6321C199.119 21.6321 198.563 21.4943 198.097 21.2188C197.634 20.9403 197.276 20.5497 197.023 20.0469C196.773 19.5412 196.648 18.9489 196.648 18.2699C196.648 17.5994 196.773 17.0085 197.023 16.4972C197.276 15.9858 197.629 15.5866 198.08 15.2997C198.535 15.0128 199.066 14.8693 199.674 14.8693C200.043 14.8693 200.401 14.9304 200.748 15.0526C201.094 15.1747 201.406 15.3665 201.681 15.6278C201.957 15.8892 202.174 16.2287 202.333 16.6463C202.492 17.0611 202.572 17.5653 202.572 18.1591V18.6108H197.369V17.6562H201.323C201.323 17.321 201.255 17.0241 201.119 16.7656C200.982 16.5043 200.79 16.2983 200.543 16.1477C200.299 15.9972 200.012 15.9219 199.683 15.9219C199.325 15.9219 199.012 16.0099 198.745 16.1861C198.481 16.3594 198.276 16.5866 198.131 16.8679C197.989 17.1463 197.918 17.4489 197.918 17.7756V18.5213C197.918 18.9588 197.995 19.331 198.148 19.6378C198.305 19.9446 198.522 20.179 198.8 20.3409C199.079 20.5 199.404 20.5795 199.776 20.5795C200.018 20.5795 200.238 20.5455 200.437 20.4773C200.636 20.4062 200.808 20.3011 200.952 20.1619C201.097 20.0227 201.208 19.8509 201.285 19.6463L202.491 19.8636C202.394 20.2187 202.221 20.5298 201.971 20.7969C201.724 21.0611 201.413 21.267 201.038 21.4148C200.665 21.5597 200.241 21.6321 199.763 21.6321ZM206.806 21.6321C206.162 21.6321 205.606 21.4943 205.14 21.2188C204.677 20.9403 204.319 20.5497 204.066 20.0469C203.816 19.5412 203.691 18.9489 203.691 18.2699C203.691 17.5994 203.816 17.0085 204.066 16.4972C204.319 15.9858 204.672 15.5866 205.123 15.2997C205.578 15.0128 206.109 14.8693 206.717 14.8693C207.086 14.8693 207.444 14.9304 207.791 15.0526C208.137 15.1747 208.449 15.3665 208.724 15.6278C209 15.8892 209.217 16.2287 209.376 16.6463C209.535 17.0611 209.615 17.5653 209.615 18.1591V18.6108H204.412V17.6562H208.366C208.366 17.321 208.298 17.0241 208.162 16.7656C208.025 16.5043 207.833 16.2983 207.586 16.1477C207.342 15.9972 207.055 15.9219 206.725 15.9219C206.368 15.9219 206.055 16.0099 205.788 16.1861C205.524 16.3594 205.319 16.5866 205.174 16.8679C205.032 17.1463 204.961 17.4489 204.961 17.7756V18.5213C204.961 18.9588 205.038 19.331 205.191 19.6378C205.348 19.9446 205.565 20.179 205.843 20.3409C206.122 20.5 206.447 20.5795 206.819 20.5795C207.061 20.5795 207.281 20.5455 207.48 20.4773C207.679 20.4062 207.85 20.3011 207.995 20.1619C208.14 20.0227 208.251 19.8509 208.328 19.6463L209.534 19.8636C209.437 20.2187 209.264 20.5298 209.014 20.7969C208.767 21.0611 208.456 21.267 208.081 21.4148C207.708 21.5597 207.284 21.6321 206.806 21.6321ZM212.2 19.2798L212.192 17.7244H212.413L215.021 14.9545H216.547L213.572 18.108H213.372L212.2 19.2798ZM211.028 21.5V12.7727H212.303V21.5H211.028ZM215.162 21.5L212.818 18.3892L213.696 17.4986L216.726 21.5H215.162ZM218.982 12.7727V21.5H217.708V12.7727H218.982ZM221.502 23.9545C221.311 23.9545 221.138 23.9389 220.982 23.9077C220.826 23.8793 220.709 23.848 220.632 23.8139L220.939 22.7699C221.172 22.8324 221.38 22.8594 221.561 22.8509C221.743 22.8423 221.904 22.7741 222.043 22.6463C222.185 22.5185 222.31 22.3097 222.418 22.0199L222.576 21.5852L220.181 14.9545H221.544L223.202 20.0341H223.27L224.928 14.9545H226.296L223.598 22.3736C223.473 22.7145 223.314 23.0028 223.121 23.2386C222.928 23.4773 222.698 23.6563 222.431 23.7756C222.164 23.8949 221.854 23.9545 221.502 23.9545ZM230.341 13.9062V12.7727H237.095V13.9062H234.372V21.5H233.06V13.9062H230.341ZM239.5 21.6449C239.085 21.6449 238.71 21.5682 238.375 21.4148C238.039 21.2585 237.774 21.0327 237.578 20.7372C237.385 20.4418 237.288 20.0795 237.288 19.6506C237.288 19.2812 237.359 18.9773 237.501 18.7386C237.643 18.5 237.835 18.3111 238.076 18.1719C238.318 18.0327 238.588 17.9276 238.886 17.8565C239.184 17.7855 239.488 17.7315 239.798 17.6946C240.19 17.6491 240.508 17.6122 240.752 17.5838C240.997 17.5526 241.174 17.5028 241.285 17.4347C241.396 17.3665 241.451 17.2557 241.451 17.1023V17.0724C241.451 16.7003 241.346 16.4119 241.136 16.2074C240.929 16.0028 240.619 15.9006 240.207 15.9006C239.778 15.9006 239.44 15.9957 239.193 16.1861C238.949 16.3736 238.779 16.5824 238.686 16.8125L237.488 16.5398C237.63 16.142 237.838 15.821 238.11 15.5767C238.386 15.3295 238.703 15.1506 239.061 15.0398C239.419 14.9261 239.795 14.8693 240.19 14.8693C240.451 14.8693 240.728 14.9006 241.021 14.9631C241.316 15.0227 241.592 15.1335 241.848 15.2955C242.106 15.4574 242.318 15.6889 242.483 15.9901C242.647 16.2884 242.73 16.6761 242.73 17.1534V21.5H241.485V20.6051H241.434C241.352 20.7699 241.228 20.9318 241.064 21.0909C240.899 21.25 240.687 21.3821 240.429 21.4872C240.17 21.5923 239.86 21.6449 239.5 21.6449ZM239.777 20.6222C240.129 20.6222 240.43 20.5526 240.68 20.4134C240.933 20.2741 241.125 20.0923 241.255 19.8679C241.389 19.6406 241.456 19.3977 241.456 19.1392V18.2955C241.41 18.3409 241.322 18.3835 241.191 18.4233C241.064 18.4602 240.917 18.4929 240.752 18.5213C240.588 18.5469 240.427 18.571 240.271 18.5938C240.115 18.6136 239.984 18.6307 239.879 18.6449C239.632 18.6761 239.406 18.7287 239.201 18.8026C239 18.8764 238.838 18.983 238.716 19.1222C238.596 19.2585 238.537 19.4403 238.537 19.6676C238.537 19.983 238.653 20.2216 238.886 20.3835C239.119 20.5426 239.416 20.6222 239.777 20.6222ZM249.332 16.5526L248.177 16.7571C248.129 16.6094 248.052 16.4687 247.947 16.3352C247.844 16.2017 247.705 16.0923 247.529 16.0071C247.353 15.9219 247.133 15.8793 246.869 15.8793C246.508 15.8793 246.207 15.9602 245.965 16.1222C245.724 16.2812 245.603 16.4872 245.603 16.7401C245.603 16.9588 245.684 17.1349 245.846 17.2685C246.008 17.402 246.269 17.5114 246.63 17.5966L247.67 17.8352C248.272 17.9744 248.721 18.1889 249.016 18.4787C249.312 18.7685 249.46 19.1449 249.46 19.608C249.46 20 249.346 20.3494 249.119 20.6562C248.894 20.9602 248.58 21.1989 248.177 21.3722C247.776 21.5455 247.312 21.6321 246.783 21.6321C246.05 21.6321 245.452 21.4759 244.989 21.1634C244.526 20.848 244.242 20.4006 244.137 19.821L245.369 19.6335C245.445 19.9545 245.603 20.1974 245.842 20.3622C246.08 20.5241 246.391 20.6051 246.775 20.6051C247.192 20.6051 247.526 20.5185 247.776 20.3452C248.026 20.169 248.151 19.9545 248.151 19.7017C248.151 19.4972 248.075 19.3253 247.921 19.1861C247.771 19.0469 247.539 18.9418 247.227 18.8707L246.119 18.6278C245.508 18.4886 245.056 18.267 244.763 17.9631C244.474 17.6591 244.329 17.2741 244.329 16.8082C244.329 16.4219 244.437 16.0838 244.653 15.794C244.869 15.5043 245.167 15.2784 245.548 15.1165C245.928 14.9517 246.364 14.8693 246.856 14.8693C247.563 14.8693 248.12 15.0227 248.526 15.3295C248.933 15.6335 249.201 16.0412 249.332 16.5526ZM252.032 19.2798L252.024 17.7244H252.245L254.853 14.9545H256.379L253.404 18.108H253.204L252.032 19.2798ZM250.86 21.5V12.7727H252.135V21.5H250.86ZM254.994 21.5L252.65 18.3892L253.528 17.4986L256.558 21.5H254.994ZM262.445 16.5526L261.29 16.7571C261.242 16.6094 261.165 16.4687 261.06 16.3352C260.958 16.2017 260.819 16.0923 260.642 16.0071C260.466 15.9219 260.246 15.8793 259.982 15.8793C259.621 15.8793 259.32 15.9602 259.078 16.1222C258.837 16.2812 258.716 16.4872 258.716 16.7401C258.716 16.9588 258.797 17.1349 258.959 17.2685C259.121 17.402 259.382 17.5114 259.743 17.5966L260.783 17.8352C261.385 17.9744 261.834 18.1889 262.13 18.4787C262.425 18.7685 262.573 19.1449 262.573 19.608C262.573 20 262.459 20.3494 262.232 20.6562C262.007 20.9602 261.694 21.1989 261.29 21.3722C260.89 21.5455 260.425 21.6321 259.897 21.6321C259.164 21.6321 258.566 21.4759 258.103 21.1634C257.64 20.848 257.355 20.4006 257.25 19.821L258.482 19.6335C258.559 19.9545 258.716 20.1974 258.955 20.3622C259.194 20.5241 259.505 20.6051 259.888 20.6051C260.306 20.6051 260.64 20.5185 260.89 20.3452C261.14 20.169 261.265 19.9545 261.265 19.7017C261.265 19.4972 261.188 19.3253 261.034 19.1861C260.884 19.0469 260.652 18.9418 260.34 18.8707L259.232 18.6278C258.621 18.4886 258.169 18.267 257.877 17.9631C257.587 17.6591 257.442 17.2741 257.442 16.8082C257.442 16.4219 257.55 16.0838 257.766 15.794C257.982 15.5043 258.28 15.2784 258.661 15.1165C259.042 14.9517 259.478 14.8693 259.969 14.8693C260.676 14.8693 261.233 15.0227 261.64 15.3295C262.046 15.6335 262.314 16.0412 262.445 16.5526Z" fill="#D5DBE6"/>
</g>
<g filter="url(#filter2_b_7415_54663)">
<rect x="290" width="143" height="34" rx="6" fill="#4E5053" fill-opacity="0.5"/>
<rect x="290.5" y="0.5" width="142" height="33" rx="5.5" stroke="#525B63"/>
<rect x="299" y="9" width="16" height="16" rx="8" fill="#9C6DFF"/>
<g clip-path="url(#clip2_7415_54663)">
<path d="M306.224 14.952V15.0386H306.374L306.449 14.9086L306.374 14.8654V12.2812C306.374 12.1259 306.5 12 306.656 12H307.782C307.937 12 308.063 12.1259 308.063 12.2812V14.8652L307.988 14.9085L308.063 15.0384H308.213V14.9518L306.224 14.952ZM306.224 14.952L303.985 13.6599C303.85 13.5822 303.678 13.6284 303.601 13.7629L306.224 14.952ZM308.832 16.3701L308.607 16.5L308.832 16.6299L311.222 18.0086C311.285 18.0449 311.306 18.125 311.27 18.1877L311.27 18.1877L310.707 19.1621L310.707 19.1621C310.671 19.2249 310.59 19.2465 310.527 19.2102L310.527 19.2102L308.138 17.8315L307.913 17.7017V17.9614V20.7188C307.913 20.7912 307.854 20.85 307.782 20.85H306.656C306.583 20.85 306.524 20.7912 306.524 20.7188V17.9616V17.7019L306.299 17.8317L303.91 19.2103C303.91 19.2103 303.91 19.2103 303.91 19.2103C303.847 19.2466 303.767 19.2249 303.73 19.1622L303.168 18.1879L303.168 18.1879C303.131 18.1252 303.153 18.0449 303.216 18.0086L305.605 16.6299L305.83 16.5L305.605 16.3701L303.216 14.9914C303.216 14.9914 303.216 14.9914 303.216 14.9914C303.153 14.9551 303.131 14.8748 303.168 14.8121L303.038 14.7371L303.168 14.8121L303.73 13.838C303.73 13.838 303.73 13.838 303.73 13.838C303.767 13.7751 303.847 13.7535 303.91 13.7898L303.91 13.7898L306.299 15.1685L306.524 15.2983V15.0386V12.2812C306.524 12.2088 306.583 12.15 306.656 12.15H307.782C307.854 12.15 307.913 12.2088 307.913 12.2812V15.0384V15.2981L308.138 15.1683L310.527 13.7897L310.527 13.7896C310.59 13.7534 310.671 13.7749 310.707 13.8378L311.27 14.8121C311.306 14.875 311.285 14.9552 311.222 14.9914L308.832 16.3701Z" fill="#101112" stroke="#9C6DFF" stroke-width="0.3"/>
</g>
<path d="M325.959 12.7727H327.557L330.335 19.5568H330.438L333.216 12.7727H334.814V21.5H333.561V15.1847H333.48L330.906 21.4872H329.866L327.293 15.1804H327.212V21.5H325.959V12.7727ZM339.447 21.6321C338.802 21.6321 338.247 21.4943 337.781 21.2188C337.318 20.9403 336.96 20.5497 336.707 20.0469C336.457 19.5412 336.332 18.9489 336.332 18.2699C336.332 17.5994 336.457 17.0085 336.707 16.4972C336.96 15.9858 337.312 15.5866 337.764 15.2997C338.218 15.0128 338.75 14.8693 339.358 14.8693C339.727 14.8693 340.085 14.9304 340.431 15.0526C340.778 15.1747 341.089 15.3665 341.365 15.6278C341.64 15.8892 341.858 16.2287 342.017 16.6463C342.176 17.0611 342.255 17.5653 342.255 18.1591V18.6108H337.052V17.6562H341.007C341.007 17.321 340.939 17.0241 340.802 16.7656C340.666 16.5043 340.474 16.2983 340.227 16.1477C339.983 15.9972 339.696 15.9219 339.366 15.9219C339.008 15.9219 338.696 16.0099 338.429 16.1861C338.164 16.3594 337.96 16.5866 337.815 16.8679C337.673 17.1463 337.602 17.4489 337.602 17.7756V18.5213C337.602 18.9588 337.679 19.331 337.832 19.6378C337.988 19.9446 338.206 20.179 338.484 20.3409C338.762 20.5 339.088 20.5795 339.46 20.5795C339.701 20.5795 339.922 20.5455 340.12 20.4773C340.319 20.4062 340.491 20.3011 340.636 20.1619C340.781 20.0227 340.892 19.8509 340.968 19.6463L342.174 19.8636C342.078 20.2187 341.904 20.5298 341.654 20.7969C341.407 21.0611 341.096 21.267 340.721 21.4148C340.349 21.5597 339.924 21.6321 339.447 21.6321ZM344.943 17.6136V21.5H343.669V14.9545H344.892V16.0199H344.973C345.124 15.6733 345.359 15.3949 345.68 15.1847C346.004 14.9744 346.412 14.8693 346.903 14.8693C347.349 14.8693 347.74 14.9631 348.075 15.1506C348.411 15.3352 348.67 15.6108 348.855 15.9773C349.04 16.3437 349.132 16.7969 349.132 17.3366V21.5H347.858V17.4901C347.858 17.0156 347.734 16.6449 347.487 16.3778C347.24 16.108 346.901 15.973 346.469 15.973C346.173 15.973 345.911 16.0369 345.68 16.1648C345.453 16.2926 345.273 16.4801 345.139 16.7273C345.009 16.9716 344.943 17.267 344.943 17.6136ZM353.896 14.9545V15.9773H350.321V14.9545H353.896ZM351.28 13.3864H352.554V19.5781C352.554 19.8253 352.591 20.0114 352.665 20.1364C352.739 20.2585 352.834 20.3423 352.95 20.3878C353.07 20.4304 353.199 20.4517 353.338 20.4517C353.44 20.4517 353.53 20.4446 353.607 20.4304C353.683 20.4162 353.743 20.4048 353.786 20.3963L354.016 21.4489C353.942 21.4773 353.837 21.5057 353.7 21.5341C353.564 21.5653 353.393 21.5824 353.189 21.5852C352.854 21.5909 352.541 21.5312 352.251 21.4062C351.962 21.2812 351.727 21.0881 351.548 20.8267C351.369 20.5653 351.28 20.2372 351.28 19.8423V13.3864ZM357.993 21.6321C357.379 21.6321 356.843 21.4915 356.386 21.2102C355.929 20.929 355.574 20.5355 355.321 20.0298C355.068 19.5241 354.941 18.9332 354.941 18.2571C354.941 17.5781 355.068 16.9844 355.321 16.4759C355.574 15.9673 355.929 15.5724 356.386 15.2912C356.843 15.0099 357.379 14.8693 357.993 14.8693C358.606 14.8693 359.142 15.0099 359.599 15.2912C360.056 15.5724 360.412 15.9673 360.664 16.4759C360.917 16.9844 361.044 17.5781 361.044 18.2571C361.044 18.9332 360.917 19.5241 360.664 20.0298C360.412 20.5355 360.056 20.929 359.599 21.2102C359.142 21.4915 358.606 21.6321 357.993 21.6321ZM357.997 20.5625C358.395 20.5625 358.724 20.4574 358.985 20.2472C359.247 20.0369 359.44 19.7571 359.565 19.4077C359.693 19.0582 359.757 18.6733 359.757 18.2528C359.757 17.8352 359.693 17.4517 359.565 17.1023C359.44 16.75 359.247 16.4673 358.985 16.2543C358.724 16.0412 358.395 15.9347 357.997 15.9347C357.596 15.9347 357.264 16.0412 357 16.2543C356.738 16.4673 356.544 16.75 356.416 17.1023C356.291 17.4517 356.228 17.8352 356.228 18.2528C356.228 18.6733 356.291 19.0582 356.416 19.4077C356.544 19.7571 356.738 20.0369 357 20.2472C357.264 20.4574 357.596 20.5625 357.997 20.5625ZM362.466 21.5V14.9545H363.697V15.9943H363.766C363.885 15.642 364.095 15.3651 364.396 15.1634C364.7 14.9588 365.044 14.8565 365.428 14.8565C365.507 14.8565 365.601 14.8594 365.709 14.8651C365.82 14.8707 365.906 14.8778 365.969 14.8864V16.1051C365.918 16.0909 365.827 16.0753 365.696 16.0582C365.565 16.0384 365.435 16.0284 365.304 16.0284C365.003 16.0284 364.734 16.0923 364.499 16.2202C364.266 16.3452 364.081 16.5199 363.945 16.7443C363.808 16.9659 363.74 17.2187 363.74 17.5028V21.5H362.466ZM371.976 16.5526L370.821 16.7571C370.773 16.6094 370.696 16.4687 370.591 16.3352C370.489 16.2017 370.35 16.0923 370.174 16.0071C369.998 15.9219 369.777 15.8793 369.513 15.8793C369.152 15.8793 368.851 15.9602 368.61 16.1222C368.368 16.2812 368.248 16.4872 368.248 16.7401C368.248 16.9588 368.328 17.1349 368.49 17.2685C368.652 17.402 368.914 17.5114 369.275 17.5966L370.314 17.8352C370.917 17.9744 371.365 18.1889 371.661 18.4787C371.956 18.7685 372.104 19.1449 372.104 19.608C372.104 20 371.99 20.3494 371.763 20.6562C371.539 20.9602 371.225 21.1989 370.821 21.3722C370.421 21.5455 369.956 21.6321 369.428 21.6321C368.695 21.6321 368.097 21.4759 367.634 21.1634C367.171 20.848 366.887 20.4006 366.782 19.821L368.013 19.6335C368.09 19.9545 368.248 20.1974 368.486 20.3622C368.725 20.5241 369.036 20.6051 369.419 20.6051C369.837 20.6051 370.171 20.5185 370.421 20.3452C370.671 20.169 370.796 19.9545 370.796 19.7017C370.796 19.4972 370.719 19.3253 370.566 19.1861C370.415 19.0469 370.184 18.9418 369.871 18.8707L368.763 18.6278C368.152 18.4886 367.701 18.267 367.408 17.9631C367.118 17.6591 366.973 17.2741 366.973 16.8082C366.973 16.4219 367.081 16.0838 367.297 15.794C367.513 15.5043 367.811 15.2784 368.192 15.1165C368.573 14.9517 369.009 14.8693 369.5 14.8693C370.208 14.8693 370.765 15.0227 371.171 15.3295C371.577 15.6335 371.846 16.0412 371.976 16.5526ZM377.52 21.5H376.123L379.263 12.7727H380.784L383.925 21.5H382.527L380.06 14.358H379.992L377.52 21.5ZM377.755 18.0824H382.289V19.1903H377.755V18.0824ZM387.735 21.6321C387.101 21.6321 386.556 21.4886 386.098 21.2017C385.644 20.9119 385.294 20.5128 385.05 20.0043C384.806 19.4957 384.684 18.9134 384.684 18.2571C384.684 17.5923 384.809 17.0057 385.059 16.4972C385.309 15.9858 385.661 15.5866 386.115 15.2997C386.57 15.0128 387.105 14.8693 387.722 14.8693C388.219 14.8693 388.662 14.9616 389.051 15.1463C389.441 15.3281 389.755 15.5838 389.993 15.9134C390.235 16.2429 390.378 16.6278 390.424 17.0682H389.184C389.115 16.7614 388.959 16.4972 388.715 16.2756C388.473 16.054 388.15 15.9432 387.743 15.9432C387.388 15.9432 387.077 16.0369 386.81 16.2244C386.546 16.4091 386.34 16.6733 386.192 17.017C386.044 17.358 385.971 17.7614 385.971 18.2273C385.971 18.7045 386.043 19.1165 386.188 19.4631C386.333 19.8097 386.537 20.0781 386.801 20.2685C387.069 20.4588 387.382 20.554 387.743 20.554C387.985 20.554 388.203 20.5099 388.4 20.4219C388.598 20.331 388.765 20.2017 388.898 20.0341C389.034 19.8665 389.13 19.6648 389.184 19.429H390.424C390.378 19.8523 390.24 20.2301 390.01 20.5625C389.78 20.8949 389.472 21.1562 389.086 21.3466C388.702 21.5369 388.252 21.6321 387.735 21.6321ZM394.543 21.6321C393.91 21.6321 393.364 21.4886 392.907 21.2017C392.452 20.9119 392.103 20.5128 391.859 20.0043C391.614 19.4957 391.492 18.9134 391.492 18.2571C391.492 17.5923 391.617 17.0057 391.867 16.4972C392.117 15.9858 392.469 15.5866 392.924 15.2997C393.379 15.0128 393.914 14.8693 394.531 14.8693C395.028 14.8693 395.471 14.9616 395.86 15.1463C396.249 15.3281 396.563 15.5838 396.802 15.9134C397.043 16.2429 397.187 16.6278 397.232 17.0682H395.992C395.924 16.7614 395.768 16.4972 395.523 16.2756C395.282 16.054 394.958 15.9432 394.552 15.9432C394.197 15.9432 393.886 16.0369 393.619 16.2244C393.354 16.4091 393.148 16.6733 393.001 17.017C392.853 17.358 392.779 17.7614 392.779 18.2273C392.779 18.7045 392.852 19.1165 392.996 19.4631C393.141 19.8097 393.346 20.0781 393.61 20.2685C393.877 20.4588 394.191 20.554 394.552 20.554C394.793 20.554 395.012 20.5099 395.208 20.4219C395.407 20.331 395.573 20.2017 395.707 20.0341C395.843 19.8665 395.938 19.6648 395.992 19.429H397.232C397.187 19.8523 397.049 20.2301 396.819 20.5625C396.589 20.8949 396.281 21.1562 395.894 21.3466C395.511 21.5369 395.06 21.6321 394.543 21.6321ZM401.416 21.6321C400.771 21.6321 400.216 21.4943 399.75 21.2188C399.287 20.9403 398.929 20.5497 398.676 20.0469C398.426 19.5412 398.301 18.9489 398.301 18.2699C398.301 17.5994 398.426 17.0085 398.676 16.4972C398.929 15.9858 399.281 15.5866 399.733 15.2997C400.187 15.0128 400.718 14.8693 401.326 14.8693C401.696 14.8693 402.054 14.9304 402.4 15.0526C402.747 15.1747 403.058 15.3665 403.333 15.6278C403.609 15.8892 403.826 16.2287 403.985 16.6463C404.145 17.0611 404.224 17.5653 404.224 18.1591V18.6108H399.021V17.6562H402.975C402.975 17.321 402.907 17.0241 402.771 16.7656C402.635 16.5043 402.443 16.2983 402.196 16.1477C401.951 15.9972 401.664 15.9219 401.335 15.9219C400.977 15.9219 400.664 16.0099 400.397 16.1861C400.133 16.3594 399.929 16.5866 399.784 16.8679C399.642 17.1463 399.571 17.4489 399.571 17.7756V18.5213C399.571 18.9588 399.647 19.331 399.801 19.6378C399.957 19.9446 400.174 20.179 400.453 20.3409C400.731 20.5 401.056 20.5795 401.429 20.5795C401.67 20.5795 401.89 20.5455 402.089 20.4773C402.288 20.4062 402.46 20.3011 402.605 20.1619C402.75 20.0227 402.86 19.8509 402.937 19.6463L404.143 19.8636C404.047 20.2187 403.873 20.5298 403.623 20.7969C403.376 21.0611 403.065 21.267 402.69 21.4148C402.318 21.5597 401.893 21.6321 401.416 21.6321ZM410.543 16.5526L409.388 16.7571C409.339 16.6094 409.263 16.4687 409.158 16.3352C409.055 16.2017 408.916 16.0923 408.74 16.0071C408.564 15.9219 408.344 15.8793 408.08 15.8793C407.719 15.8793 407.418 15.9602 407.176 16.1222C406.935 16.2812 406.814 16.4872 406.814 16.7401C406.814 16.9588 406.895 17.1349 407.057 17.2685C407.219 17.402 407.48 17.5114 407.841 17.5966L408.881 17.8352C409.483 17.9744 409.932 18.1889 410.227 18.4787C410.523 18.7685 410.67 19.1449 410.67 19.608C410.67 20 410.557 20.3494 410.33 20.6562C410.105 20.9602 409.791 21.1989 409.388 21.3722C408.987 21.5455 408.523 21.6321 407.994 21.6321C407.261 21.6321 406.663 21.4759 406.2 21.1634C405.737 20.848 405.453 20.4006 405.348 19.821L406.58 19.6335C406.656 19.9545 406.814 20.1974 407.053 20.3622C407.291 20.5241 407.602 20.6051 407.986 20.6051C408.403 20.6051 408.737 20.5185 408.987 20.3452C409.237 20.169 409.362 19.9545 409.362 19.7017C409.362 19.4972 409.286 19.3253 409.132 19.1861C408.982 19.0469 408.75 18.9418 408.438 18.8707L407.33 18.6278C406.719 18.4886 406.267 18.267 405.974 17.9631C405.685 17.6591 405.54 17.2741 405.54 16.8082C405.54 16.4219 405.648 16.0838 405.864 15.794C406.08 15.5043 406.378 15.2784 406.759 15.1165C407.139 14.9517 407.575 14.8693 408.067 14.8693C408.774 14.8693 409.331 15.0227 409.737 15.3295C410.143 15.6335 410.412 16.0412 410.543 16.5526ZM416.976 16.5526L415.821 16.7571C415.773 16.6094 415.696 16.4687 415.591 16.3352C415.489 16.2017 415.35 16.0923 415.174 16.0071C414.998 15.9219 414.777 15.8793 414.513 15.8793C414.152 15.8793 413.851 15.9602 413.61 16.1222C413.368 16.2812 413.248 16.4872 413.248 16.7401C413.248 16.9588 413.328 17.1349 413.49 17.2685C413.652 17.402 413.914 17.5114 414.275 17.5966L415.314 17.8352C415.917 17.9744 416.365 18.1889 416.661 18.4787C416.956 18.7685 417.104 19.1449 417.104 19.608C417.104 20 416.99 20.3494 416.763 20.6562C416.539 20.9602 416.225 21.1989 415.821 21.3722C415.421 21.5455 414.956 21.6321 414.428 21.6321C413.695 21.6321 413.097 21.4759 412.634 21.1634C412.171 20.848 411.887 20.4006 411.782 19.821L413.013 19.6335C413.09 19.9545 413.248 20.1974 413.486 20.3622C413.725 20.5241 414.036 20.6051 414.419 20.6051C414.837 20.6051 415.171 20.5185 415.421 20.3452C415.671 20.169 415.796 19.9545 415.796 19.7017C415.796 19.4972 415.719 19.3253 415.566 19.1861C415.415 19.0469 415.184 18.9418 414.871 18.8707L413.763 18.6278C413.152 18.4886 412.701 18.267 412.408 17.9631C412.118 17.6591 411.973 17.2741 411.973 16.8082C411.973 16.4219 412.081 16.0838 412.297 15.794C412.513 15.5043 412.811 15.2784 413.192 15.1165C413.573 14.9517 414.009 14.8693 414.5 14.8693C415.208 14.8693 415.765 15.0227 416.171 15.3295C416.577 15.6335 416.846 16.0412 416.976 16.5526Z" fill="#D5DBE6"/>
</g>
<g filter="url(#filter3_b_7415_54663)">
<rect y="44" width="174" height="34" rx="6" fill="#4E5053" fill-opacity="0.5"/>
<rect x="0.5" y="44.5" width="173" height="33" rx="5.5" stroke="#525B63"/>
<rect x="9" y="53" width="16" height="16" rx="8" fill="#FF7324"/>
<g clip-path="url(#clip3_7415_54663)">
<path d="M16.2244 58.952V59.0386H16.3744L16.4494 58.9086L16.3744 58.8654V56.2812C16.3744 56.1259 16.5005 56 16.6559 56H17.7816C17.937 56 18.063 56.1259 18.063 56.2812V58.8652L17.988 58.9085L18.063 59.0384H18.213V58.9518L16.2244 58.952ZM16.2244 58.952L13.985 57.6599C13.8504 57.5822 13.6783 57.6284 13.6006 57.7629L16.2244 58.952ZM18.8323 60.3701L18.6071 60.5L18.8323 60.6299L21.2217 62.0086C21.2846 62.0449 21.306 62.125 21.2698 62.1877L21.2698 62.1877L20.7069 63.1621L20.7069 63.1621C20.6706 63.2249 20.5903 63.2465 20.5273 63.2102L20.5273 63.2102L18.138 61.8315L17.913 61.7017V61.9614V64.7188C17.913 64.7912 17.8542 64.85 17.7816 64.85H16.6559C16.5832 64.85 16.5244 64.7912 16.5244 64.7188V61.9616V61.7019L16.2995 61.8317L13.9102 63.2103C13.9102 63.2103 13.9102 63.2103 13.9102 63.2103C13.8471 63.2466 13.7667 63.2249 13.7305 63.1622L13.1676 62.1879L13.1676 62.1879C13.1314 62.1252 13.1529 62.0449 13.2157 62.0086L15.6051 60.6299L15.8303 60.5L15.6051 60.3701L13.2157 58.9914C13.2157 58.9914 13.2157 58.9914 13.2157 58.9914C13.1529 58.9551 13.1314 58.8748 13.1676 58.8121L13.0378 58.7371L13.1676 58.8121L13.7305 57.838C13.7305 57.838 13.7305 57.838 13.7305 57.838C13.7668 57.7751 13.8472 57.7535 13.9101 57.7898L13.9101 57.7898L16.2995 59.1685L16.5244 59.2983V59.0386V56.2812C16.5244 56.2088 16.5832 56.15 16.6559 56.15H17.7816C17.8542 56.15 17.913 56.2088 17.913 56.2812V59.0384V59.2981L18.138 59.1683L20.5273 57.7897L20.5273 57.7896C20.5902 57.7534 20.6706 57.7749 20.7069 57.8378L21.2697 58.8121C21.3061 58.875 21.2845 58.9552 21.2217 58.9914L18.8323 60.3701Z" fill="#101112" stroke="#FF7324" stroke-width="0.3"/>
</g>
<path d="M35.9588 65.5V56.7727H39.0696C39.7486 56.7727 40.3111 56.8963 40.7571 57.1435C41.2031 57.3906 41.5369 57.7287 41.7585 58.1577C41.9801 58.5838 42.0909 59.0639 42.0909 59.598C42.0909 60.1349 41.9787 60.6179 41.7543 61.0469C41.5327 61.473 41.1974 61.8111 40.7486 62.0611C40.3026 62.3082 39.7415 62.4318 39.0653 62.4318H36.9261V61.3153H38.946C39.375 61.3153 39.723 61.2415 39.9901 61.0938C40.2571 60.9432 40.4531 60.7386 40.5781 60.4801C40.7031 60.2216 40.7656 59.9276 40.7656 59.598C40.7656 59.2685 40.7031 58.9759 40.5781 58.7202C40.4531 58.4645 40.2557 58.2642 39.9858 58.1193C39.7188 57.9744 39.3665 57.902 38.929 57.902H37.2756V65.5H35.9588ZM46.2713 65.6321C45.6264 65.6321 45.071 65.4943 44.6051 65.2188C44.142 64.9403 43.7841 64.5497 43.5312 64.0469C43.2812 63.5412 43.1562 62.9489 43.1562 62.2699C43.1562 61.5994 43.2812 61.0085 43.5312 60.4972C43.7841 59.9858 44.1364 59.5866 44.5881 59.2997C45.0426 59.0128 45.5739 58.8693 46.1818 58.8693C46.5511 58.8693 46.9091 58.9304 47.2557 59.0526C47.6023 59.1747 47.9134 59.3665 48.1889 59.6278C48.4645 59.8892 48.6818 60.2287 48.8409 60.6463C49 61.0611 49.0795 61.5653 49.0795 62.1591V62.6108H43.8764V61.6562H47.831C47.831 61.321 47.7628 61.0241 47.6264 60.7656C47.4901 60.5043 47.2983 60.2983 47.0511 60.1477C46.8068 59.9972 46.5199 59.9219 46.1903 59.9219C45.8324 59.9219 45.5199 60.0099 45.2528 60.1861C44.9886 60.3594 44.7841 60.5866 44.6392 60.8679C44.4972 61.1463 44.4261 61.4489 44.4261 61.7756V62.5213C44.4261 62.9588 44.5028 63.331 44.6562 63.6378C44.8125 63.9446 45.0298 64.179 45.3082 64.3409C45.5866 64.5 45.9119 64.5795 46.2841 64.5795C46.5256 64.5795 46.7457 64.5455 46.9446 64.4773C47.1435 64.4062 47.3153 64.3011 47.4602 64.1619C47.6051 64.0227 47.7159 63.8509 47.7926 63.6463L48.9986 63.8636C48.902 64.2187 48.7287 64.5298 48.4787 64.7969C48.2315 65.0611 47.9205 65.267 47.5455 65.4148C47.1733 65.5597 46.7486 65.6321 46.2713 65.6321ZM50.4933 65.5V58.9545H51.7248V59.9943H51.793C51.9123 59.642 52.1225 59.3651 52.4237 59.1634C52.7276 58.9588 53.0714 58.8565 53.4549 58.8565C53.5344 58.8565 53.6282 58.8594 53.7362 58.8651C53.8469 58.8707 53.9336 58.8778 53.9961 58.8864V60.1051C53.945 60.0909 53.854 60.0753 53.7234 60.0582C53.5927 60.0384 53.462 60.0284 53.3313 60.0284C53.0302 60.0284 52.7617 60.0923 52.5259 60.2202C52.293 60.3452 52.1083 60.5199 51.9719 60.7443C51.8356 60.9659 51.7674 61.2187 51.7674 61.5028V65.5H50.4933ZM58.6005 58.9545V59.9773H54.9016V58.9545H58.6005ZM55.9158 65.5V58.196C55.9158 57.7869 56.0053 57.4474 56.1843 57.1776C56.3633 56.9048 56.6005 56.7017 56.896 56.5682C57.1914 56.4318 57.5124 56.3636 57.859 56.3636C58.1147 56.3636 58.3335 56.3849 58.5153 56.4276C58.6971 56.4673 58.832 56.5043 58.9201 56.5384L58.6218 57.5696C58.5621 57.5526 58.4854 57.5327 58.3917 57.5099C58.2979 57.4844 58.1843 57.4716 58.0508 57.4716C57.7411 57.4716 57.5195 57.5483 57.386 57.7017C57.2553 57.8551 57.19 58.0767 57.19 58.3665V65.5H55.9158ZM62.4144 65.6321C61.8008 65.6321 61.2653 65.4915 60.8079 65.2102C60.3505 64.929 59.9954 64.5355 59.7425 64.0298C59.4897 63.5241 59.3633 62.9332 59.3633 62.2571C59.3633 61.5781 59.4897 60.9844 59.7425 60.4759C59.9954 59.9673 60.3505 59.5724 60.8079 59.2912C61.2653 59.0099 61.8008 58.8693 62.4144 58.8693C63.0281 58.8693 63.5636 59.0099 64.021 59.2912C64.4783 59.5724 64.8335 59.9673 65.0863 60.4759C65.3391 60.9844 65.4656 61.5781 65.4656 62.2571C65.4656 62.9332 65.3391 63.5241 65.0863 64.0298C64.8335 64.5355 64.4783 64.929 64.021 65.2102C63.5636 65.4915 63.0281 65.6321 62.4144 65.6321ZM62.4187 64.5625C62.8164 64.5625 63.146 64.4574 63.4073 64.2472C63.6687 64.0369 63.8619 63.7571 63.9869 63.4077C64.1147 63.0582 64.1786 62.6733 64.1786 62.2528C64.1786 61.8352 64.1147 61.4517 63.9869 61.1023C63.8619 60.75 63.6687 60.4673 63.4073 60.2543C63.146 60.0412 62.8164 59.9347 62.4187 59.9347C62.0181 59.9347 61.6857 60.0412 61.4215 60.2543C61.1602 60.4673 60.9656 60.75 60.8377 61.1023C60.7127 61.4517 60.6502 61.8352 60.6502 62.2528C60.6502 62.6733 60.7127 63.0582 60.8377 63.4077C60.9656 63.7571 61.1602 64.0369 61.4215 64.2472C61.6857 64.4574 62.0181 64.5625 62.4187 64.5625ZM66.8878 65.5V58.9545H68.1193V59.9943H68.1875C68.3068 59.642 68.517 59.3651 68.8182 59.1634C69.1222 58.9588 69.4659 58.8565 69.8494 58.8565C69.929 58.8565 70.0227 58.8594 70.1307 58.8651C70.2415 58.8707 70.3281 58.8778 70.3906 58.8864V60.1051C70.3395 60.0909 70.2486 60.0753 70.1179 60.0582C69.9872 60.0384 69.8565 60.0284 69.7259 60.0284C69.4247 60.0284 69.1563 60.0923 68.9205 60.2202C68.6875 60.3452 68.5028 60.5199 68.3665 60.7443C68.2301 60.9659 68.1619 61.2187 68.1619 61.5028V65.5H66.8878ZM71.4933 65.5V58.9545H72.7163V60.0199H72.7972C72.9336 59.6591 73.1566 59.3778 73.4663 59.1761C73.7759 58.9716 74.1467 58.8693 74.5785 58.8693C75.016 58.8693 75.3825 58.9716 75.6779 59.1761C75.9762 59.3807 76.1964 59.6619 76.3384 60.0199H76.4066C76.5629 59.6705 76.8114 59.392 77.1523 59.1847C77.4933 58.9744 77.8995 58.8693 78.3711 58.8693C78.9648 58.8693 79.4492 59.0554 79.8242 59.4276C80.2021 59.7997 80.391 60.3608 80.391 61.1108V65.5H79.1168V61.2301C79.1168 60.7869 78.9961 60.4659 78.7546 60.267C78.5131 60.0682 78.2248 59.9688 77.8896 59.9688C77.4748 59.9688 77.1523 60.0966 76.9222 60.3523C76.6921 60.6051 76.5771 60.9304 76.5771 61.3281V65.5H75.3072V61.1491C75.3072 60.794 75.1964 60.5085 74.9748 60.2926C74.7532 60.0767 74.4648 59.9688 74.1097 59.9688C73.8683 59.9688 73.6452 60.0327 73.4407 60.1605C73.239 60.2855 73.0756 60.4602 72.9506 60.6847C72.8285 60.9091 72.7674 61.169 72.7674 61.4645V65.5H71.4933ZM84.0036 65.6449C83.5888 65.6449 83.2138 65.5682 82.8786 65.4148C82.5433 65.2585 82.2777 65.0327 82.0817 64.7372C81.8885 64.4418 81.7919 64.0795 81.7919 63.6506C81.7919 63.2812 81.8629 62.9773 82.005 62.7386C82.147 62.5 82.3388 62.3111 82.5803 62.1719C82.8217 62.0327 83.0916 61.9276 83.3899 61.8565C83.6882 61.7855 83.9922 61.7315 84.3018 61.6946C84.6939 61.6491 85.0121 61.6122 85.2564 61.5838C85.5007 61.5526 85.6783 61.5028 85.7891 61.4347C85.8999 61.3665 85.9553 61.2557 85.9553 61.1023V61.0724C85.9553 60.7003 85.8501 60.4119 85.6399 60.2074C85.4325 60.0028 85.1229 59.9006 84.7109 59.9006C84.282 59.9006 83.9439 59.9957 83.6967 60.1861C83.4524 60.3736 83.2834 60.5824 83.1896 60.8125L81.9922 60.5398C82.1342 60.142 82.3416 59.821 82.6143 59.5767C82.8899 59.3295 83.2067 59.1506 83.5646 59.0398C83.9226 58.9261 84.299 58.8693 84.6939 58.8693C84.9553 58.8693 85.2322 58.9006 85.5249 58.9631C85.8203 59.0227 86.0959 59.1335 86.3516 59.2955C86.6101 59.4574 86.8217 59.6889 86.9865 59.9901C87.1513 60.2884 87.2337 60.6761 87.2337 61.1534V65.5H85.9893V64.6051H85.9382C85.8558 64.7699 85.7322 64.9318 85.5675 65.0909C85.4027 65.25 85.1911 65.3821 84.9325 65.4872C84.674 65.5923 84.3643 65.6449 84.0036 65.6449ZM84.2805 64.6222C84.6328 64.6222 84.9339 64.5526 85.1839 64.4134C85.4368 64.2741 85.6286 64.0923 85.7592 63.8679C85.8928 63.6406 85.9595 63.3977 85.9595 63.1392V62.2955C85.9141 62.3409 85.826 62.3835 85.6953 62.4233C85.5675 62.4602 85.4212 62.4929 85.2564 62.5213C85.0916 62.5469 84.9311 62.571 84.7749 62.5938C84.6186 62.6136 84.4879 62.6307 84.3828 62.6449C84.1357 62.6761 83.9098 62.7287 83.7053 62.8026C83.5036 62.8764 83.3416 62.983 83.2195 63.1222C83.1001 63.2585 83.0405 63.4403 83.0405 63.6676C83.0405 63.983 83.157 64.2216 83.3899 64.3835C83.6229 64.5426 83.9197 64.6222 84.2805 64.6222ZM90.2049 61.6136V65.5H88.9308V58.9545H90.1538V60.0199H90.2347C90.3853 59.6733 90.6211 59.3949 90.9421 59.1847C91.266 58.9744 91.6737 58.8693 92.1651 58.8693C92.6112 58.8693 93.0018 58.9631 93.337 59.1506C93.6722 59.3352 93.9322 59.6108 94.1168 59.9773C94.3015 60.3437 94.3938 60.7969 94.3938 61.3366V65.5H93.1197V61.4901C93.1197 61.0156 92.9961 60.6449 92.7489 60.3778C92.5018 60.108 92.1623 59.973 91.7305 59.973C91.435 59.973 91.1722 60.0369 90.9421 60.1648C90.7148 60.2926 90.5344 60.4801 90.4009 60.7273C90.2702 60.9716 90.2049 61.267 90.2049 61.6136ZM98.8597 65.6321C98.2262 65.6321 97.6808 65.4886 97.2234 65.2017C96.7688 64.9119 96.4194 64.5128 96.1751 64.0043C95.9308 63.4957 95.8086 62.9134 95.8086 62.2571C95.8086 61.5923 95.9336 61.0057 96.1836 60.4972C96.4336 59.9858 96.7859 59.5866 97.2404 59.2997C97.695 59.0128 98.2305 58.8693 98.8469 58.8693C99.3441 58.8693 99.7873 58.9616 100.176 59.1463C100.566 59.3281 100.88 59.5838 101.118 59.9134C101.36 60.2429 101.503 60.6278 101.549 61.0682H100.309C100.24 60.7614 100.084 60.4972 99.8398 60.2756C99.5984 60.054 99.2745 59.9432 98.8683 59.9432C98.5131 59.9432 98.2021 60.0369 97.935 60.2244C97.6708 60.4091 97.4648 60.6733 97.3171 61.017C97.1694 61.358 97.0955 61.7614 97.0955 62.2273C97.0955 62.7045 97.168 63.1165 97.3129 63.4631C97.4577 63.8097 97.6623 64.0781 97.9265 64.2685C98.1935 64.4588 98.5075 64.554 98.8683 64.554C99.1097 64.554 99.3285 64.5099 99.5245 64.4219C99.7234 64.331 99.8896 64.2017 100.023 64.0341C100.159 63.8665 100.255 63.6648 100.309 63.429H101.549C101.503 63.8523 101.365 64.2301 101.135 64.5625C100.905 64.8949 100.597 65.1562 100.211 65.3466C99.8271 65.5369 99.3768 65.6321 98.8597 65.6321ZM105.732 65.6321C105.087 65.6321 104.532 65.4943 104.066 65.2188C103.603 64.9403 103.245 64.5497 102.992 64.0469C102.742 63.5412 102.617 62.9489 102.617 62.2699C102.617 61.5994 102.742 61.0085 102.992 60.4972C103.245 59.9858 103.597 59.5866 104.049 59.2997C104.504 59.0128 105.035 58.8693 105.643 58.8693C106.012 58.8693 106.37 58.9304 106.717 59.0526C107.063 59.1747 107.374 59.3665 107.65 59.6278C107.925 59.8892 108.143 60.2287 108.302 60.6463C108.461 61.0611 108.54 61.5653 108.54 62.1591V62.6108H103.337V61.6562H107.292C107.292 61.321 107.224 61.0241 107.087 60.7656C106.951 60.5043 106.759 60.2983 106.512 60.1477C106.268 59.9972 105.981 59.9219 105.651 59.9219C105.293 59.9219 104.981 60.0099 104.714 60.1861C104.45 60.3594 104.245 60.5866 104.1 60.8679C103.958 61.1463 103.887 61.4489 103.887 61.7756V62.5213C103.887 62.9588 103.964 63.331 104.117 63.6378C104.273 63.9446 104.491 64.179 104.769 64.3409C105.048 64.5 105.373 64.5795 105.745 64.5795C105.987 64.5795 106.207 64.5455 106.406 64.4773C106.604 64.4062 106.776 64.3011 106.921 64.1619C107.066 64.0227 107.177 63.8509 107.254 63.6463L108.46 63.8636C108.363 64.2187 108.19 64.5298 107.94 64.7969C107.692 65.0611 107.381 65.267 107.006 65.4148C106.634 65.5597 106.21 65.6321 105.732 65.6321ZM112.802 57.9062V56.7727H119.556V57.9062H116.833V65.5H115.521V57.9062H112.802ZM120.267 65.5V58.9545H121.498V59.9943H121.566C121.686 59.642 121.896 59.3651 122.197 59.1634C122.501 58.9588 122.845 58.8565 123.228 58.8565C123.308 58.8565 123.402 58.8594 123.51 58.8651C123.62 58.8707 123.707 58.8778 123.77 58.8864V60.1051C123.718 60.0909 123.627 60.0753 123.497 60.0582C123.366 60.0384 123.235 60.0284 123.105 60.0284C122.804 60.0284 122.535 60.0923 122.299 60.2202C122.066 60.3452 121.882 60.5199 121.745 60.7443C121.609 60.9659 121.541 61.2187 121.541 61.5028V65.5H120.267ZM126.718 65.6449C126.304 65.6449 125.929 65.5682 125.593 65.4148C125.258 65.2585 124.993 65.0327 124.797 64.7372C124.603 64.4418 124.507 64.0795 124.507 63.6506C124.507 63.2812 124.578 62.9773 124.72 62.7386C124.862 62.5 125.054 62.3111 125.295 62.1719C125.537 62.0327 125.806 61.9276 126.105 61.8565C126.403 61.7855 126.707 61.7315 127.017 61.6946C127.409 61.6491 127.727 61.6122 127.971 61.5838C128.216 61.5526 128.393 61.5028 128.504 61.4347C128.615 61.3665 128.67 61.2557 128.67 61.1023V61.0724C128.67 60.7003 128.565 60.4119 128.355 60.2074C128.147 60.0028 127.838 59.9006 127.426 59.9006C126.997 59.9006 126.659 59.9957 126.412 60.1861C126.167 60.3736 125.998 60.5824 125.904 60.8125L124.707 60.5398C124.849 60.142 125.056 59.821 125.329 59.5767C125.605 59.3295 125.922 59.1506 126.279 59.0398C126.637 58.9261 127.014 58.8693 127.409 58.8693C127.67 58.8693 127.947 58.9006 128.24 58.9631C128.535 59.0227 128.811 59.1335 129.066 59.2955C129.325 59.4574 129.537 59.6889 129.701 59.9901C129.866 60.2884 129.949 60.6761 129.949 61.1534V65.5H128.704V64.6051H128.653C128.571 64.7699 128.447 64.9318 128.282 65.0909C128.118 65.25 127.906 65.3821 127.647 65.4872C127.389 65.5923 127.079 65.6449 126.718 65.6449ZM126.995 64.6222C127.348 64.6222 127.649 64.5526 127.899 64.4134C128.152 64.2741 128.343 64.0923 128.474 63.8679C128.608 63.6406 128.674 63.3977 128.674 63.1392V62.2955C128.629 62.3409 128.541 62.3835 128.41 62.4233C128.282 62.4602 128.136 62.4929 127.971 62.5213C127.806 62.5469 127.646 62.571 127.49 62.5938C127.333 62.6136 127.203 62.6307 127.098 62.6449C126.85 62.6761 126.625 62.7287 126.42 62.8026C126.218 62.8764 126.056 62.983 125.934 63.1222C125.815 63.2585 125.755 63.4403 125.755 63.6676C125.755 63.983 125.872 64.2216 126.105 64.3835C126.338 64.5426 126.635 64.6222 126.995 64.6222ZM134.403 65.6321C133.769 65.6321 133.224 65.4886 132.766 65.2017C132.312 64.9119 131.962 64.5128 131.718 64.0043C131.474 63.4957 131.352 62.9134 131.352 62.2571C131.352 61.5923 131.477 61.0057 131.727 60.4972C131.977 59.9858 132.329 59.5866 132.783 59.2997C133.238 59.0128 133.773 58.8693 134.39 58.8693C134.887 58.8693 135.33 58.9616 135.719 59.1463C136.109 59.3281 136.423 59.5838 136.661 59.9134C136.903 60.2429 137.046 60.6278 137.092 61.0682H135.852C135.783 60.7614 135.627 60.4972 135.383 60.2756C135.141 60.054 134.817 59.9432 134.411 59.9432C134.056 59.9432 133.745 60.0369 133.478 60.2244C133.214 60.4091 133.008 60.6733 132.86 61.017C132.712 61.358 132.638 61.7614 132.638 62.2273C132.638 62.7045 132.711 63.1165 132.856 63.4631C133.001 63.8097 133.205 64.0781 133.469 64.2685C133.737 64.4588 134.05 64.554 134.411 64.554C134.653 64.554 134.871 64.5099 135.067 64.4219C135.266 64.331 135.433 64.2017 135.566 64.0341C135.702 63.8665 135.798 63.6648 135.852 63.429H137.092C137.046 63.8523 136.908 64.2301 136.678 64.5625C136.448 64.8949 136.14 65.1562 135.754 65.3466C135.37 65.5369 134.92 65.6321 134.403 65.6321ZM139.626 63.2798L139.618 61.7244H139.839L142.447 58.9545H143.973L140.998 62.108H140.798L139.626 63.2798ZM138.454 65.5V56.7727H139.728V65.5H138.454ZM142.588 65.5L140.244 62.3892L141.122 61.4986L144.152 65.5H142.588ZM145.134 65.5V58.9545H146.408V65.5H145.134ZM145.777 57.9446C145.556 57.9446 145.365 57.8707 145.206 57.723C145.05 57.5724 144.972 57.3935 144.972 57.1861C144.972 56.9759 145.05 56.7969 145.206 56.6491C145.365 56.4986 145.556 56.4233 145.777 56.4233C145.999 56.4233 146.188 56.4986 146.344 56.6491C146.503 56.7969 146.583 56.9759 146.583 57.1861C146.583 57.3935 146.503 57.5724 146.344 57.723C146.188 57.8707 145.999 57.9446 145.777 57.9446ZM149.396 61.6136V65.5H148.122V58.9545H149.345V60.0199H149.426C149.577 59.6733 149.813 59.3949 150.134 59.1847C150.457 58.9744 150.865 58.8693 151.357 58.8693C151.803 58.8693 152.193 58.9631 152.528 59.1506C152.864 59.3352 153.124 59.6108 153.308 59.9773C153.493 60.3437 153.585 60.7969 153.585 61.3366V65.5H152.311V61.4901C152.311 61.0156 152.188 60.6449 151.94 60.3778C151.693 60.108 151.354 59.973 150.922 59.973C150.626 59.973 150.364 60.0369 150.134 60.1648C149.906 60.2926 149.726 60.4801 149.592 60.7273C149.462 60.9716 149.396 61.267 149.396 61.6136ZM158.038 68.0909C157.518 68.0909 157.071 68.0227 156.696 67.8864C156.324 67.75 156.02 67.5696 155.784 67.3452C155.548 67.1207 155.372 66.875 155.256 66.608L156.351 66.1562C156.428 66.2812 156.53 66.4134 156.658 66.5526C156.788 66.6946 156.964 66.8153 157.186 66.9148C157.411 67.0142 157.699 67.0639 158.051 67.0639C158.534 67.0639 158.933 66.946 159.249 66.7102C159.564 66.4773 159.722 66.1051 159.722 65.5938V64.3068H159.641C159.564 64.446 159.453 64.6009 159.308 64.7713C159.166 64.9418 158.97 65.0895 158.72 65.2145C158.47 65.3395 158.145 65.402 157.744 65.402C157.227 65.402 156.761 65.2812 156.347 65.0398C155.935 64.7955 155.608 64.4361 155.366 63.9616C155.128 63.4844 155.009 62.8977 155.009 62.2017C155.009 61.5057 155.126 60.9091 155.362 60.4119C155.601 59.9148 155.928 59.5341 156.342 59.2699C156.757 59.0028 157.227 58.8693 157.753 58.8693C158.159 58.8693 158.487 58.9375 158.737 59.0739C158.987 59.2074 159.182 59.3636 159.321 59.5426C159.463 59.7216 159.572 59.8793 159.649 60.0156H159.743V58.9545H160.991V65.6449C160.991 66.2074 160.861 66.669 160.599 67.0298C160.338 67.3906 159.984 67.6577 159.538 67.831C159.095 68.0043 158.595 68.0909 158.038 68.0909ZM158.026 64.3452C158.392 64.3452 158.702 64.2599 158.955 64.0895C159.21 63.9162 159.403 63.669 159.534 63.348C159.668 63.0241 159.734 62.6364 159.734 62.1847C159.734 61.7443 159.669 61.3565 159.538 61.0213C159.408 60.6861 159.216 60.4247 158.963 60.2372C158.71 60.0469 158.398 59.9517 158.026 59.9517C157.642 59.9517 157.322 60.0511 157.067 60.25C156.811 60.446 156.618 60.7131 156.487 61.0511C156.359 61.3892 156.295 61.767 156.295 62.1847C156.295 62.6136 156.361 62.9901 156.491 63.3139C156.622 63.6378 156.815 63.8906 157.071 64.0724C157.33 64.2543 157.648 64.3452 158.026 64.3452Z" fill="#D5DBE6"/>
</g>
<g filter="url(#filter4_b_7415_54663)">
<rect x="186" y="44" width="115" height="34" rx="6" fill="#4E5053" fill-opacity="0.5"/>
<rect x="186.5" y="44.5" width="114" height="33" rx="5.5" stroke="#525B63"/>
<rect x="195" y="53" width="16" height="16" rx="8" fill="#FCCE3A"/>
<g clip-path="url(#clip4_7415_54663)">
<path d="M202.224 58.952V59.0386H202.374L202.449 58.9086L202.374 58.8654V56.2812C202.374 56.1259 202.5 56 202.656 56H203.782C203.937 56 204.063 56.1259 204.063 56.2812V58.8652L203.988 58.9085L204.063 59.0384H204.213V58.9518L202.224 58.952ZM202.224 58.952L199.985 57.6599C199.85 57.5822 199.678 57.6284 199.601 57.7629L202.224 58.952ZM204.832 60.3701L204.607 60.5L204.832 60.6299L207.222 62.0086C207.285 62.0449 207.306 62.125 207.27 62.1877L207.27 62.1877L206.707 63.1621L206.707 63.1621C206.671 63.2249 206.59 63.2465 206.527 63.2102L206.527 63.2102L204.138 61.8315L203.913 61.7017V61.9614V64.7188C203.913 64.7912 203.854 64.85 203.782 64.85H202.656C202.583 64.85 202.524 64.7912 202.524 64.7188V61.9616V61.7019L202.299 61.8317L199.91 63.2103C199.91 63.2103 199.91 63.2103 199.91 63.2103C199.847 63.2466 199.767 63.2249 199.73 63.1622L199.168 62.1879L199.168 62.1879C199.131 62.1252 199.153 62.0449 199.216 62.0086L201.605 60.6299L201.83 60.5L201.605 60.3701L199.216 58.9914C199.216 58.9914 199.216 58.9914 199.216 58.9914C199.153 58.9551 199.131 58.8748 199.168 58.8121L199.038 58.7371L199.168 58.8121L199.73 57.838C199.73 57.838 199.73 57.838 199.73 57.838C199.767 57.7751 199.847 57.7535 199.91 57.7898L199.91 57.7898L202.299 59.1685L202.524 59.2983V59.0386V56.2812C202.524 56.2088 202.583 56.15 202.656 56.15H203.782C203.854 56.15 203.913 56.2088 203.913 56.2812V59.0384V59.2981L204.138 59.1683L206.527 57.7897L206.527 57.7896C206.59 57.7534 206.671 57.7749 206.707 57.8378L207.27 58.8121C207.306 58.875 207.285 58.9552 207.222 58.9914L204.832 60.3701Z" fill="#101112" stroke="#FCCE3A" stroke-width="0.3"/>
</g>
<path d="M221.959 65.5V56.7727H225.07C225.749 56.7727 226.311 56.8963 226.757 57.1435C227.203 57.3906 227.537 57.7287 227.759 58.1577C227.98 58.5838 228.091 59.0639 228.091 59.598C228.091 60.1349 227.979 60.6179 227.754 61.0469C227.533 61.473 227.197 61.8111 226.749 62.0611C226.303 62.3082 225.741 62.4318 225.065 62.4318H222.926V61.3153H224.946C225.375 61.3153 225.723 61.2415 225.99 61.0938C226.257 60.9432 226.453 60.7386 226.578 60.4801C226.703 60.2216 226.766 59.9276 226.766 59.598C226.766 59.2685 226.703 58.9759 226.578 58.7202C226.453 58.4645 226.256 58.2642 225.986 58.1193C225.719 57.9744 225.366 57.902 224.929 57.902H223.276V65.5H221.959ZM229.532 65.5V58.9545H230.806V65.5H229.532ZM230.176 57.9446C229.954 57.9446 229.764 57.8707 229.605 57.723C229.449 57.5724 229.37 57.3935 229.37 57.1861C229.37 56.9759 229.449 56.7969 229.605 56.6491C229.764 56.4986 229.954 56.4233 230.176 56.4233C230.397 56.4233 230.586 56.4986 230.743 56.6491C230.902 56.7969 230.981 56.9759 230.981 57.1861C230.981 57.3935 230.902 57.5724 230.743 57.723C230.586 57.8707 230.397 57.9446 230.176 57.9446ZM235.576 58.9545V59.9773H232.001V58.9545H235.576ZM232.96 57.3864H234.234V63.5781C234.234 63.8253 234.271 64.0114 234.344 64.1364C234.418 64.2585 234.513 64.3423 234.63 64.3878C234.749 64.4304 234.879 64.4517 235.018 64.4517C235.12 64.4517 235.21 64.4446 235.286 64.4304C235.363 64.4162 235.423 64.4048 235.465 64.3963L235.695 65.4489C235.621 65.4773 235.516 65.5057 235.38 65.5341C235.244 65.5653 235.073 65.5824 234.869 65.5852C234.533 65.5909 234.221 65.5312 233.931 65.4062C233.641 65.2812 233.407 65.0881 233.228 64.8267C233.049 64.5653 232.96 64.2372 232.96 63.8423V57.3864ZM239.672 65.6321C239.039 65.6321 238.493 65.4886 238.036 65.2017C237.581 64.9119 237.232 64.5128 236.988 64.0043C236.743 63.4957 236.621 62.9134 236.621 62.2571C236.621 61.5923 236.746 61.0057 236.996 60.4972C237.246 59.9858 237.598 59.5866 238.053 59.2997C238.507 59.0128 239.043 58.8693 239.659 58.8693C240.157 58.8693 240.6 58.9616 240.989 59.1463C241.378 59.3281 241.692 59.5838 241.931 59.9134C242.172 60.2429 242.316 60.6278 242.361 61.0682H241.121C241.053 60.7614 240.897 60.4972 240.652 60.2756C240.411 60.054 240.087 59.9432 239.681 59.9432C239.326 59.9432 239.015 60.0369 238.748 60.2244C238.483 60.4091 238.277 60.6733 238.13 61.017C237.982 61.358 237.908 61.7614 237.908 62.2273C237.908 62.7045 237.98 63.1165 238.125 63.4631C238.27 63.8097 238.475 64.0781 238.739 64.2685C239.006 64.4588 239.32 64.554 239.681 64.554C239.922 64.554 240.141 64.5099 240.337 64.4219C240.536 64.331 240.702 64.2017 240.836 64.0341C240.972 63.8665 241.067 63.6648 241.121 63.429H242.361C242.316 63.8523 242.178 64.2301 241.948 64.5625C241.718 64.8949 241.409 65.1562 241.023 65.3466C240.64 65.5369 240.189 65.6321 239.672 65.6321ZM244.998 61.6136V65.5H243.724V56.7727H244.981V60.0199H245.062C245.215 59.6676 245.45 59.3878 245.765 59.1804C246.08 58.973 246.492 58.8693 247.001 58.8693C247.45 58.8693 247.842 58.9616 248.177 59.1463C248.515 59.331 248.776 59.6065 248.961 59.973C249.148 60.3366 249.242 60.7912 249.242 61.3366V65.5H247.968V61.4901C247.968 61.0099 247.844 60.6378 247.597 60.3736C247.35 60.1065 247.006 59.973 246.566 59.973C246.265 59.973 245.995 60.0369 245.756 60.1648C245.521 60.2926 245.335 60.4801 245.198 60.7273C245.065 60.9716 244.998 61.267 244.998 61.6136ZM257.046 65.5H254.221V56.7727H257.135C257.99 56.7727 258.725 56.9474 259.338 57.2969C259.952 57.6435 260.422 58.142 260.749 58.7926C261.078 59.4403 261.243 60.2173 261.243 61.1236C261.243 62.0327 261.077 62.8139 260.745 63.4673C260.415 64.1207 259.938 64.6236 259.313 64.9759C258.688 65.3253 257.932 65.5 257.046 65.5ZM255.537 64.3494H256.973C257.638 64.3494 258.191 64.2244 258.631 63.9744C259.071 63.7216 259.401 63.3565 259.62 62.8793C259.838 62.3991 259.948 61.8139 259.948 61.1236C259.948 60.4389 259.838 59.858 259.62 59.3807C259.404 58.9034 259.081 58.5412 258.652 58.294C258.223 58.0469 257.691 57.9233 257.054 57.9233H255.537V64.3494ZM265.599 65.6321C264.955 65.6321 264.399 65.4943 263.933 65.2188C263.47 64.9403 263.112 64.5497 262.859 64.0469C262.609 63.5412 262.484 62.9489 262.484 62.2699C262.484 61.5994 262.609 61.0085 262.859 60.4972C263.112 59.9858 263.464 59.5866 263.916 59.2997C264.371 59.0128 264.902 58.8693 265.51 58.8693C265.879 58.8693 266.237 58.9304 266.584 59.0526C266.93 59.1747 267.241 59.3665 267.517 59.6278C267.793 59.8892 268.01 60.2287 268.169 60.6463C268.328 61.0611 268.408 61.5653 268.408 62.1591V62.6108H263.205V61.6562H267.159C267.159 61.321 267.091 61.0241 266.955 60.7656C266.818 60.5043 266.626 60.2983 266.379 60.1477C266.135 59.9972 265.848 59.9219 265.518 59.9219C265.161 59.9219 264.848 60.0099 264.581 60.1861C264.317 60.3594 264.112 60.5866 263.967 60.8679C263.825 61.1463 263.754 61.4489 263.754 61.7756V62.5213C263.754 62.9588 263.831 63.331 263.984 63.6378C264.141 63.9446 264.358 64.179 264.636 64.3409C264.915 64.5 265.24 64.5795 265.612 64.5795C265.854 64.5795 266.074 64.5455 266.273 64.4773C266.472 64.4062 266.643 64.3011 266.788 64.1619C266.933 64.0227 267.044 63.8509 267.121 63.6463L268.327 63.8636C268.23 64.2187 268.057 64.5298 267.807 64.7969C267.56 65.0611 267.249 65.267 266.874 65.4148C266.501 65.5597 266.077 65.6321 265.599 65.6321ZM272.578 65.6321C271.945 65.6321 271.4 65.4886 270.942 65.2017C270.488 64.9119 270.138 64.5128 269.894 64.0043C269.65 63.4957 269.527 62.9134 269.527 62.2571C269.527 61.5923 269.652 61.0057 269.902 60.4972C270.152 59.9858 270.505 59.5866 270.959 59.2997C271.414 59.0128 271.949 58.8693 272.566 58.8693C273.063 58.8693 273.506 58.9616 273.895 59.1463C274.284 59.3281 274.598 59.5838 274.837 59.9134C275.078 60.2429 275.222 60.6278 275.267 61.0682H274.027C273.959 60.7614 273.803 60.4972 273.559 60.2756C273.317 60.054 272.993 59.9432 272.587 59.9432C272.232 59.9432 271.921 60.0369 271.654 60.2244C271.39 60.4091 271.184 60.6733 271.036 61.017C270.888 61.358 270.814 61.7614 270.814 62.2273C270.814 62.7045 270.887 63.1165 271.032 63.4631C271.176 63.8097 271.381 64.0781 271.645 64.2685C271.912 64.4588 272.226 64.554 272.587 64.554C272.828 64.554 273.047 64.5099 273.243 64.4219C273.442 64.331 273.608 64.2017 273.742 64.0341C273.878 63.8665 273.973 63.6648 274.027 63.429H275.267C275.222 63.8523 275.084 64.2301 274.854 64.5625C274.624 64.8949 274.316 65.1562 273.929 65.3466C273.546 65.5369 273.096 65.6321 272.578 65.6321ZM277.802 63.2798L277.793 61.7244H278.015L280.623 58.9545H282.148L279.174 62.108H278.974L277.802 63.2798ZM276.63 65.5V56.7727H277.904V65.5H276.63ZM280.763 65.5L278.42 62.3892L279.298 61.4986L282.327 65.5H280.763ZM288.214 60.5526L287.06 60.7571C287.011 60.6094 286.935 60.4687 286.83 60.3352C286.727 60.2017 286.588 60.0923 286.412 60.0071C286.236 59.9219 286.016 59.8793 285.751 59.8793C285.391 59.8793 285.089 59.9602 284.848 60.1222C284.607 60.2812 284.486 60.4872 284.486 60.7401C284.486 60.9588 284.567 61.1349 284.729 61.2685C284.891 61.402 285.152 61.5114 285.513 61.5966L286.553 61.8352C287.155 61.9744 287.604 62.1889 287.899 62.4787C288.195 62.7685 288.342 63.1449 288.342 63.608C288.342 64 288.229 64.3494 288.001 64.6562C287.777 64.9602 287.463 65.1989 287.06 65.3722C286.659 65.5455 286.195 65.6321 285.666 65.6321C284.933 65.6321 284.335 65.4759 283.872 65.1634C283.409 64.848 283.125 64.4006 283.02 63.821L284.251 63.6335C284.328 63.9545 284.486 64.1974 284.724 64.3622C284.963 64.5241 285.274 64.6051 285.658 64.6051C286.075 64.6051 286.409 64.5185 286.659 64.3452C286.909 64.169 287.034 63.9545 287.034 63.7017C287.034 63.4972 286.957 63.3253 286.804 63.1861C286.653 63.0469 286.422 62.9418 286.109 62.8707L285.001 62.6278C284.391 62.4886 283.939 62.267 283.646 61.9631C283.357 61.6591 283.212 61.2741 283.212 60.8082C283.212 60.4219 283.32 60.0838 283.536 59.794C283.751 59.5043 284.05 59.2784 284.43 59.1165C284.811 58.9517 285.247 58.8693 285.739 58.8693C286.446 58.8693 287.003 59.0227 287.409 59.3295C287.815 59.6335 288.084 60.0412 288.214 60.5526Z" fill="#D5DBE6"/>
</g>
<g filter="url(#filter5_b_7415_54663)">
<rect x="313" y="44" width="121" height="34" rx="6" fill="#4E5053" fill-opacity="0.5"/>
<rect x="313.5" y="44.5" width="120" height="33" rx="5.5" stroke="#525B63"/>
<rect x="322" y="53" width="16" height="16" rx="8" fill="#FF7324"/>
<g clip-path="url(#clip5_7415_54663)">
<path d="M329.224 58.952V59.0386H329.374L329.449 58.9086L329.374 58.8654V56.2812C329.374 56.1259 329.5 56 329.656 56H330.782C330.937 56 331.063 56.1259 331.063 56.2812V58.8652L330.988 58.9085L331.063 59.0384H331.213V58.9518L329.224 58.952ZM329.224 58.952L326.985 57.6599C326.85 57.5822 326.678 57.6284 326.601 57.7629L329.224 58.952ZM331.832 60.3701L331.607 60.5L331.832 60.6299L334.222 62.0086C334.285 62.0449 334.306 62.125 334.27 62.1877L334.27 62.1877L333.707 63.1621L333.707 63.1621C333.671 63.2249 333.59 63.2465 333.527 63.2102L333.527 63.2102L331.138 61.8315L330.913 61.7017V61.9614V64.7188C330.913 64.7912 330.854 64.85 330.782 64.85H329.656C329.583 64.85 329.524 64.7912 329.524 64.7188V61.9616V61.7019L329.299 61.8317L326.91 63.2103C326.91 63.2103 326.91 63.2103 326.91 63.2103C326.847 63.2466 326.767 63.2249 326.73 63.1622L326.168 62.1879L326.168 62.1879C326.131 62.1252 326.153 62.0449 326.216 62.0086L328.605 60.6299L328.83 60.5L328.605 60.3701L326.216 58.9914C326.216 58.9914 326.216 58.9914 326.216 58.9914C326.153 58.9551 326.131 58.8748 326.168 58.8121L326.038 58.7371L326.168 58.8121L326.73 57.838C326.73 57.838 326.73 57.838 326.73 57.838C326.767 57.7751 326.847 57.7535 326.91 57.7898L326.91 57.7898L329.299 59.1685L329.524 59.2983V59.0386V56.2812C329.524 56.2088 329.583 56.15 329.656 56.15H330.782C330.854 56.15 330.913 56.2088 330.913 56.2812V59.0384V59.2981L331.138 59.1683L333.527 57.7897L333.527 57.7896C333.59 57.7534 333.671 57.7749 333.707 57.8378L334.27 58.8121C334.306 58.875 334.285 58.9552 334.222 58.9914L331.832 60.3701Z" fill="#101112" stroke="#FF7324" stroke-width="0.3"/>
</g>
<path d="M348.959 65.5V56.7727H352.07C352.749 56.7727 353.311 56.8963 353.757 57.1435C354.203 57.3906 354.537 57.7287 354.759 58.1577C354.98 58.5838 355.091 59.0639 355.091 59.598C355.091 60.1349 354.979 60.6179 354.754 61.0469C354.533 61.473 354.197 61.8111 353.749 62.0611C353.303 62.3082 352.741 62.4318 352.065 62.4318H349.926V61.3153H351.946C352.375 61.3153 352.723 61.2415 352.99 61.0938C353.257 60.9432 353.453 60.7386 353.578 60.4801C353.703 60.2216 353.766 59.9276 353.766 59.598C353.766 59.2685 353.703 58.9759 353.578 58.7202C353.453 58.4645 353.256 58.2642 352.986 58.1193C352.719 57.9744 352.366 57.902 351.929 57.902H350.276V65.5H348.959ZM359.207 65.6321C358.594 65.6321 358.058 65.4915 357.601 65.2102C357.143 64.929 356.788 64.5355 356.536 64.0298C356.283 63.5241 356.156 62.9332 356.156 62.2571C356.156 61.5781 356.283 60.9844 356.536 60.4759C356.788 59.9673 357.143 59.5724 357.601 59.2912C358.058 59.0099 358.594 58.8693 359.207 58.8693C359.821 58.8693 360.357 59.0099 360.814 59.2912C361.271 59.5724 361.626 59.9673 361.879 60.4759C362.132 60.9844 362.259 61.5781 362.259 62.2571C362.259 62.9332 362.132 63.5241 361.879 64.0298C361.626 64.5355 361.271 64.929 360.814 65.2102C360.357 65.4915 359.821 65.6321 359.207 65.6321ZM359.212 64.5625C359.609 64.5625 359.939 64.4574 360.2 64.2472C360.462 64.0369 360.655 63.7571 360.78 63.4077C360.908 63.0582 360.972 62.6733 360.972 62.2528C360.972 61.8352 360.908 61.4517 360.78 61.1023C360.655 60.75 360.462 60.4673 360.2 60.2543C359.939 60.0412 359.609 59.9347 359.212 59.9347C358.811 59.9347 358.479 60.0412 358.214 60.2543C357.953 60.4673 357.759 60.75 357.631 61.1023C357.506 61.4517 357.443 61.8352 357.443 62.2528C357.443 62.6733 357.506 63.0582 357.631 63.4077C357.759 63.7571 357.953 64.0369 358.214 64.2472C358.479 64.4574 358.811 64.5625 359.212 64.5625ZM371.032 59.6108H369.702C369.651 59.3267 369.556 59.0767 369.417 58.8608C369.277 58.6449 369.107 58.4616 368.905 58.3111C368.703 58.1605 368.478 58.0469 368.228 57.9702C367.98 57.8935 367.718 57.8551 367.439 57.8551C366.936 57.8551 366.486 57.9815 366.088 58.2344C365.694 58.4872 365.381 58.858 365.151 59.3466C364.924 59.8352 364.81 60.4318 364.81 61.1364C364.81 61.8466 364.924 62.446 365.151 62.9347C365.381 63.4233 365.695 63.7926 366.093 64.0426C366.49 64.2926 366.938 64.4176 367.435 64.4176C367.711 64.4176 367.972 64.3807 368.219 64.3068C368.469 64.2301 368.695 64.1179 368.897 63.9702C369.098 63.8224 369.269 63.642 369.408 63.429C369.55 63.2131 369.648 62.9659 369.702 62.6875L371.032 62.6918C370.961 63.1207 370.823 63.5156 370.618 63.8764C370.417 64.2344 370.157 64.544 369.838 64.8054C369.523 65.0639 369.162 65.2642 368.756 65.4062C368.35 65.5483 367.907 65.6193 367.426 65.6193C366.671 65.6193 365.998 65.4403 365.407 65.0824C364.816 64.7216 364.35 64.206 364.009 63.5355C363.671 62.8651 363.502 62.0653 363.502 61.1364C363.502 60.2045 363.672 59.4048 364.013 58.7372C364.354 58.0668 364.82 57.5526 365.411 57.1946C366.002 56.8338 366.674 56.6534 367.426 56.6534C367.89 56.6534 368.321 56.7202 368.722 56.8537C369.125 56.9844 369.488 57.1776 369.809 57.4332C370.13 57.6861 370.395 57.9957 370.605 58.3622C370.816 58.7259 370.958 59.142 371.032 59.6108ZM375.783 65.5V56.7727H378.979C379.598 56.7727 380.111 56.875 380.517 57.0795C380.924 57.2812 381.228 57.5554 381.429 57.902C381.631 58.2457 381.732 58.6335 381.732 59.0653C381.732 59.429 381.665 59.7358 381.532 59.9858C381.398 60.233 381.219 60.4318 380.995 60.5824C380.773 60.7301 380.529 60.8381 380.262 60.9062V60.9915C380.551 61.0057 380.834 61.0994 381.11 61.2727C381.388 61.4432 381.618 61.6861 381.8 62.0014C381.982 62.3168 382.073 62.7003 382.073 63.152C382.073 63.598 381.968 63.9986 381.757 64.3537C381.55 64.706 381.229 64.9858 380.794 65.1932C380.36 65.3977 379.804 65.5 379.128 65.5H375.783ZM377.1 64.3707H379C379.631 64.3707 380.083 64.2486 380.355 64.0043C380.628 63.7599 380.765 63.4545 380.765 63.0881C380.765 62.8125 380.695 62.5597 380.556 62.3295C380.417 62.0994 380.218 61.9162 379.959 61.7798C379.703 61.6435 379.4 61.5753 379.047 61.5753H377.1V64.3707ZM377.1 60.5483H378.864C379.159 60.5483 379.425 60.4915 379.661 60.3778C379.9 60.2642 380.088 60.1051 380.228 59.9006C380.37 59.6932 380.441 59.4489 380.441 59.1676C380.441 58.8068 380.314 58.5043 380.061 58.2599C379.809 58.0156 379.421 57.8935 378.898 57.8935H377.1V60.5483ZM387.679 62.7855V58.9545H388.957V65.5H387.704V64.3665H387.636C387.485 64.7159 387.244 65.0071 386.912 65.2401C386.582 65.4702 386.172 65.5852 385.68 65.5852C385.26 65.5852 384.887 65.4929 384.564 65.3082C384.243 65.1207 383.99 64.8438 383.805 64.4773C383.623 64.1108 383.532 63.6577 383.532 63.1179V58.9545H384.806V62.9645C384.806 63.4105 384.93 63.7656 385.177 64.0298C385.424 64.294 385.745 64.4261 386.14 64.4261C386.379 64.4261 386.616 64.3665 386.852 64.2472C387.091 64.1278 387.288 63.9474 387.444 63.706C387.603 63.4645 387.681 63.1577 387.679 62.7855ZM390.669 65.5V58.9545H391.943V65.5H390.669ZM391.312 57.9446C391.091 57.9446 390.901 57.8707 390.741 57.723C390.585 57.5724 390.507 57.3935 390.507 57.1861C390.507 56.9759 390.585 56.7969 390.741 56.6491C390.901 56.4986 391.091 56.4233 391.312 56.4233C391.534 56.4233 391.723 56.4986 391.879 56.6491C392.038 56.7969 392.118 56.9759 392.118 57.1861C392.118 57.3935 392.038 57.5724 391.879 57.723C391.723 57.8707 391.534 57.9446 391.312 57.9446ZM394.931 56.7727V65.5H393.657V56.7727H394.931ZM399.096 65.6278C398.567 65.6278 398.096 65.4929 397.681 65.223C397.269 64.9503 396.945 64.5625 396.71 64.0597C396.477 63.554 396.36 62.9474 396.36 62.2401C396.36 61.5327 396.478 60.9276 396.714 60.4247C396.952 59.9219 397.279 59.5369 397.694 59.2699C398.109 59.0028 398.579 58.8693 399.104 58.8693C399.511 58.8693 399.837 58.9375 400.085 59.0739C400.335 59.2074 400.528 59.3636 400.664 59.5426C400.803 59.7216 400.911 59.8793 400.988 60.0156H401.065V56.7727H402.339V65.5H401.094V64.4815H400.988C400.911 64.6207 400.8 64.7798 400.656 64.9588C400.513 65.1378 400.317 65.294 400.067 65.4276C399.817 65.5611 399.494 65.6278 399.096 65.6278ZM399.377 64.5412C399.744 64.5412 400.053 64.4446 400.306 64.2514C400.562 64.0554 400.755 63.7841 400.886 63.4375C401.019 63.0909 401.086 62.6875 401.086 62.2273C401.086 61.7727 401.021 61.375 400.89 61.0341C400.759 60.6932 400.567 60.4276 400.315 60.2372C400.062 60.0469 399.749 59.9517 399.377 59.9517C398.994 59.9517 398.674 60.0511 398.418 60.25C398.163 60.4489 397.969 60.7202 397.839 61.0639C397.711 61.4077 397.647 61.7955 397.647 62.2273C397.647 62.6648 397.712 63.0582 397.843 63.4077C397.974 63.7571 398.167 64.0341 398.423 64.2386C398.681 64.4403 398.999 64.5412 399.377 64.5412ZM404.157 65.5V58.9545H405.431V65.5H404.157ZM404.801 57.9446C404.579 57.9446 404.389 57.8707 404.23 57.723C404.074 57.5724 403.995 57.3935 403.995 57.1861C403.995 56.9759 404.074 56.7969 404.23 56.6491C404.389 56.4986 404.579 56.4233 404.801 56.4233C405.022 56.4233 405.211 56.4986 405.368 56.6491C405.527 56.7969 405.606 56.9759 405.606 57.1861C405.606 57.3935 405.527 57.5724 405.368 57.723C405.211 57.8707 405.022 57.9446 404.801 57.9446ZM408.42 61.6136V65.5H407.146V58.9545H408.369V60.0199H408.45C408.6 59.6733 408.836 59.3949 409.157 59.1847C409.481 58.9744 409.888 58.8693 410.38 58.8693C410.826 58.8693 411.217 58.9631 411.552 59.1506C411.887 59.3352 412.147 59.6108 412.332 59.9773C412.516 60.3437 412.609 60.7969 412.609 61.3366V65.5H411.335V61.4901C411.335 61.0156 411.211 60.6449 410.964 60.3778C410.717 60.108 410.377 59.973 409.945 59.973C409.65 59.973 409.387 60.0369 409.157 60.1648C408.93 60.2926 408.749 60.4801 408.616 60.7273C408.485 60.9716 408.42 61.267 408.42 61.6136ZM417.062 68.0909C416.542 68.0909 416.094 68.0227 415.719 67.8864C415.347 67.75 415.043 67.5696 414.808 67.3452C414.572 67.1207 414.396 66.875 414.279 66.608L415.374 66.1562C415.451 66.2812 415.553 66.4134 415.681 66.5526C415.812 66.6946 415.988 66.8153 416.21 66.9148C416.434 67.0142 416.722 67.0639 417.075 67.0639C417.558 67.0639 417.957 66.946 418.272 66.7102C418.587 66.4773 418.745 66.1051 418.745 65.5938V64.3068H418.664C418.587 64.446 418.477 64.6009 418.332 64.7713C418.19 64.9418 417.994 65.0895 417.744 65.2145C417.494 65.3395 417.168 65.402 416.768 65.402C416.251 65.402 415.785 65.2812 415.37 65.0398C414.958 64.7955 414.631 64.4361 414.39 63.9616C414.151 63.4844 414.032 62.8977 414.032 62.2017C414.032 61.5057 414.15 60.9091 414.386 60.4119C414.624 59.9148 414.951 59.5341 415.366 59.2699C415.781 59.0028 416.251 58.8693 416.776 58.8693C417.183 58.8693 417.511 58.9375 417.761 59.0739C418.011 59.2074 418.205 59.3636 418.344 59.5426C418.487 59.7216 418.596 59.8793 418.673 60.0156H418.766V58.9545H420.015V65.6449C420.015 66.2074 419.884 66.669 419.623 67.0298C419.362 67.3906 419.008 67.6577 418.562 67.831C418.119 68.0043 417.619 68.0909 417.062 68.0909ZM417.049 64.3452C417.415 64.3452 417.725 64.2599 417.978 64.0895C418.234 63.9162 418.427 63.669 418.558 63.348C418.691 63.0241 418.758 62.6364 418.758 62.1847C418.758 61.7443 418.692 61.3565 418.562 61.0213C418.431 60.6861 418.239 60.4247 417.987 60.2372C417.734 60.0469 417.421 59.9517 417.049 59.9517C416.665 59.9517 416.346 60.0511 416.09 60.25C415.835 60.446 415.641 60.7131 415.511 61.0511C415.383 61.3892 415.319 61.767 415.319 62.1847C415.319 62.6136 415.384 62.9901 415.515 63.3139C415.646 63.6378 415.839 63.8906 416.094 64.0724C416.353 64.2543 416.671 64.3452 417.049 64.3452Z" fill="#D5DBE6"/>
</g>
<defs>
<filter id="filter0_b_7415_54663" x="-10" y="-10" width="158" height="54" filterUnits="userSpaceOnUse" color-interpolation-filters="sRGB">
<feFlood flood-opacity="0" result="BackgroundImageFix"/>
<feGaussianBlur in="BackgroundImageFix" stdDeviation="5"/>
<feComposite in2="SourceAlpha" operator="in" result="effect1_backgroundBlur_7415_54663"/>
<feBlend mode="normal" in="SourceGraphic" in2="effect1_backgroundBlur_7415_54663" result="shape"/>
</filter>
<filter id="filter1_b_7415_54663" x="140" y="-10" width="148" height="54" filterUnits="userSpaceOnUse" color-interpolation-filters="sRGB">
<feFlood flood-opacity="0" result="BackgroundImageFix"/>
<feGaussianBlur in="BackgroundImageFix" stdDeviation="5"/>
<feComposite in2="SourceAlpha" operator="in" result="effect1_backgroundBlur_7415_54663"/>
<feBlend mode="normal" in="SourceGraphic" in2="effect1_backgroundBlur_7415_54663" result="shape"/>
</filter>
<filter id="filter2_b_7415_54663" x="280" y="-10" width="163" height="54" filterUnits="userSpaceOnUse" color-interpolation-filters="sRGB">
<feFlood flood-opacity="0" result="BackgroundImageFix"/>
<feGaussianBlur in="BackgroundImageFix" stdDeviation="5"/>
<feComposite in2="SourceAlpha" operator="in" result="effect1_backgroundBlur_7415_54663"/>
<feBlend mode="normal" in="SourceGraphic" in2="effect1_backgroundBlur_7415_54663" result="shape"/>
</filter>
<filter id="filter3_b_7415_54663" x="-10" y="34" width="194" height="54" filterUnits="userSpaceOnUse" color-interpolation-filters="sRGB">
<feFlood flood-opacity="0" result="BackgroundImageFix"/>
<feGaussianBlur in="BackgroundImageFix" stdDeviation="5"/>
<feComposite in2="SourceAlpha" operator="in" result="effect1_backgroundBlur_7415_54663"/>
<feBlend mode="normal" in="SourceGraphic" in2="effect1_backgroundBlur_7415_54663" result="shape"/>
</filter>
<filter id="filter4_b_7415_54663" x="176" y="34" width="135" height="54" filterUnits="userSpaceOnUse" color-interpolation-filters="sRGB">
<feFlood flood-opacity="0" result="BackgroundImageFix"/>
<feGaussianBlur in="BackgroundImageFix" stdDeviation="5"/>
<feComposite in2="SourceAlpha" operator="in" result="effect1_backgroundBlur_7415_54663"/>
<feBlend mode="normal" in="SourceGraphic" in2="effect1_backgroundBlur_7415_54663" result="shape"/>
</filter>
<filter id="filter5_b_7415_54663" x="303" y="34" width="141" height="54" filterUnits="userSpaceOnUse" color-interpolation-filters="sRGB">
<feFlood flood-opacity="0" result="BackgroundImageFix"/>
<feGaussianBlur in="BackgroundImageFix" stdDeviation="5"/>
<feComposite in2="SourceAlpha" operator="in" result="effect1_backgroundBlur_7415_54663"/>
<feBlend mode="normal" in="SourceGraphic" in2="effect1_backgroundBlur_7415_54663" result="shape"/>
</filter>
<clipPath id="clip0_7415_54663">
<rect width="8.4375" height="9" fill="white" transform="translate(13 12)"/>
</clipPath>
<clipPath id="clip1_7415_54663">
<rect width="8.4375" height="9" fill="white" transform="translate(163 12)"/>
</clipPath>
<clipPath id="clip2_7415_54663">
<rect width="8.4375" height="9" fill="white" transform="translate(303 12)"/>
</clipPath>
<clipPath id="clip3_7415_54663">
<rect width="8.4375" height="9" fill="white" transform="translate(13 56)"/>
</clipPath>
<clipPath id="clip4_7415_54663">
<rect width="8.4375" height="9" fill="white" transform="translate(199 56)"/>
</clipPath>
<clipPath id="clip5_7415_54663">
<rect width="8.4375" height="9" fill="white" transform="translate(326 56)"/>
</clipPath>
</defs>
</svg>
